<svg width="489" height="352" viewBox="0 0 489 352" fill="none" xmlns="http://www.w3.org/2000/svg">
<mask id="mask0_34_140" style="mask-type:alpha" maskUnits="userSpaceOnUse" x="1" y="0" width="487" height="350">
<path d="M84.3029 216.365C89.5091 216.34 94.7114 216.574 99.8991 217.007C105.839 217.504 111.749 218.265 117.644 219.131C124.155 220.088 130.64 221.171 137.115 222.323C147.632 224.193 158.114 226.237 168.581 228.365C180.322 230.754 192.037 233.254 203.737 235.827C231.222 241.871 258.626 248.3 285.962 254.991C302.087 258.938 318.197 262.98 334.261 267.175C344.494 269.846 354.696 272.623 364.919 275.347C370.402 276.809 375.89 278.266 381.377 279.707C384.258 280.464 387.139 281.205 390.02 281.961C396.935 283.784 403.835 285.648 410.719 287.592C417.92 289.623 425.094 291.775 432.254 293.959C438.259 295.792 444.259 297.645 450.26 299.504C450.439 299.561 450.545 299.75 450.488 299.929C450.437 300.108 450.248 300.214 450.064 300.158C444.206 298.461 438.349 296.769 432.486 295.099C426.734 293.459 420.982 291.835 415.205 290.28C411.739 289.348 408.268 288.437 404.792 287.547C402.586 286.981 400.374 286.43 398.162 285.859C395.297 285.124 392.437 284.393 389.577 283.647C384.732 282.386 379.897 281.083 375.057 279.801C368.199 277.984 361.347 276.156 354.495 274.317C347.938 272.556 341.381 270.789 334.813 269.07C317.981 264.659 301.107 260.422 284.213 256.269C257.408 249.684 230.542 243.332 203.598 237.353C191.851 234.748 180.083 232.212 168.295 229.802C157.991 227.694 147.672 225.67 137.323 223.82C131.564 222.791 125.8 221.814 120.015 220.926C112.968 219.846 105.894 218.887 98.7865 218.333C86.4543 217.367 73.9392 217.538 61.7403 219.68C60.1432 219.957 58.5569 220.287 56.9707 220.622C54.7962 221.087 52.6325 221.609 50.4903 222.215C46.9305 223.224 43.4032 224.391 39.9985 225.846C35.3085 227.855 30.8001 230.358 26.7156 233.426C24.7206 234.925 22.8209 236.556 21.0957 238.359C20.5416 238.94 20.0033 239.543 19.4915 240.166C19.1886 240.536 18.8805 240.917 18.6146 241.318C18.5572 241.408 18.4417 241.435 18.3519 241.377C18.2622 241.32 18.2406 241.204 18.2979 241.115C18.5898 240.661 18.9187 240.233 19.2581 239.815C19.7438 239.213 20.2558 238.627 20.7785 238.061C22.4563 236.253 24.3033 234.602 26.2457 233.081C30.3922 229.829 34.9787 227.194 39.757 224.995C42.8988 223.547 46.1205 222.272 49.4224 221.238C51.811 220.488 54.2262 219.817 56.6632 219.262C59.1841 218.685 61.7373 218.228 64.2962 217.846C69.1985 217.108 74.1447 216.675 79.0974 216.489C80.8324 216.411 82.5676 216.375 84.3029 216.365Z" fill="white"/>
<path d="M84.3029 216.365C89.5091 216.34 94.7114 216.574 99.8991 217.007C105.839 217.504 111.749 218.265 117.644 219.131C124.155 220.088 130.64 221.171 137.115 222.323C147.632 224.193 158.114 226.237 168.581 228.365C180.322 230.754 192.037 233.254 203.737 235.827C231.222 241.871 258.626 248.3 285.962 254.991C302.087 258.938 318.197 262.98 334.261 267.175C344.494 269.846 354.696 272.623 364.919 275.347C370.402 276.809 375.89 278.266 381.377 279.707C384.258 280.464 387.139 281.205 390.02 281.961C396.935 283.784 403.835 285.648 410.719 287.592C417.92 289.623 425.094 291.775 432.254 293.959C438.259 295.792 444.259 297.645 450.26 299.504C450.439 299.561 450.545 299.75 450.488 299.929C450.437 300.108 450.248 300.214 450.064 300.158C444.206 298.461 438.349 296.769 432.486 295.099C426.734 293.459 420.982 291.835 415.205 290.28C411.739 289.348 408.268 288.437 404.792 287.547C402.586 286.981 400.374 286.43 398.162 285.859C395.297 285.124 392.437 284.393 389.577 283.647C384.732 282.386 379.897 281.083 375.057 279.801C368.199 277.984 361.347 276.156 354.495 274.317C347.938 272.556 341.381 270.789 334.813 269.07C317.981 264.659 301.107 260.422 284.213 256.269C257.408 249.684 230.542 243.332 203.598 237.353C191.851 234.748 180.083 232.212 168.295 229.802C157.991 227.694 147.672 225.67 137.323 223.82C131.564 222.791 125.8 221.814 120.015 220.926C112.968 219.846 105.894 218.887 98.7865 218.333C86.4543 217.367 73.9392 217.538 61.7403 219.68C60.1432 219.957 58.5569 220.287 56.9707 220.622C54.7962 221.087 52.6325 221.609 50.4903 222.215C46.9305 223.224 43.4032 224.391 39.9985 225.846C35.3085 227.855 30.8001 230.358 26.7156 233.426C24.7206 234.925 22.8209 236.556 21.0957 238.359C20.5416 238.94 20.0033 239.543 19.4915 240.166C19.1886 240.536 18.8805 240.917 18.6146 241.318C18.5572 241.408 18.4417 241.435 18.3519 241.377C18.2622 241.32 18.2406 241.204 18.2979 241.115C18.5898 240.661 18.9187 240.233 19.2581 239.815C19.7438 239.213 20.2558 238.627 20.7785 238.061C22.4563 236.253 24.3033 234.602 26.2457 233.081C30.3922 229.829 34.9787 227.194 39.757 224.995C42.8988 223.547 46.1205 222.272 49.4224 221.238C51.811 220.488 54.2262 219.817 56.6632 219.262C59.1841 218.685 61.7373 218.228 64.2962 217.846C69.1985 217.108 74.1447 216.675 79.0974 216.489C80.8324 216.411 82.5676 216.375 84.3029 216.365Z" fill="white"/>
<path d="M88.7303 215.24C94.4803 215.613 100.235 215.832 105.994 215.936C107.356 215.96 108.723 215.984 110.085 215.997C112.405 216.01 114.729 215.987 117.048 215.989C118.568 215.991 120.093 216.019 121.613 216.037C122.533 216.047 123.449 216.053 124.364 216.079C126.099 216.127 127.835 216.196 129.566 216.27C137.84 216.612 146.1 217.233 154.32 218.212C156.798 218.508 159.272 218.831 161.745 219.185C163.119 219.382 164.488 219.579 165.856 219.798C167.851 220.118 169.846 220.459 171.841 220.789C173.689 221.094 175.531 221.399 177.379 221.71C178.268 221.857 179.158 221.999 180.042 222.152C182.358 222.554 184.669 222.988 186.986 223.406C189.776 223.911 192.571 224.411 195.361 224.921C197.672 225.344 199.983 225.783 202.294 226.212C210.865 227.809 219.43 229.417 228.006 230.988C235.481 232.355 242.956 233.69 250.452 234.915C253.741 235.454 257.042 235.945 260.337 236.473C264.174 237.082 268.011 237.728 271.843 238.401C284.604 240.637 297.313 243.189 309.971 245.946C328.852 250.051 347.631 254.614 366.384 259.256C371.967 260.639 377.549 262.028 383.136 263.405C385.459 263.976 387.781 264.536 390.098 265.112C392.379 265.682 394.654 266.258 396.934 266.84C398.504 267.241 400.068 267.658 401.637 268.064C405.087 268.96 408.536 269.85 411.991 270.735C420.776 272.978 429.57 275.168 438.386 277.285C438.602 277.336 438.745 277.551 438.694 277.772C438.642 277.988 438.427 278.126 438.212 278.075C428.661 276.062 419.13 273.955 409.61 271.795C406.803 271.159 404.002 270.517 401.195 269.871C399.615 269.506 398.036 269.153 396.461 268.778C394.176 268.233 391.89 267.689 389.605 267.128C387.283 266.558 384.971 265.966 382.648 265.385C378.44 264.336 374.238 263.287 370.03 262.244C352.43 257.879 334.82 253.551 317.128 249.566C302.621 246.298 288.058 243.257 273.423 240.616C268.97 239.811 264.511 239.047 260.042 238.321C257.042 237.833 254.036 237.377 251.036 236.878C245.177 235.912 239.329 234.873 233.491 233.812C223.594 232.007 213.718 230.122 203.831 228.259C200.904 227.708 197.982 227.151 195.055 226.61C192.707 226.177 190.354 225.754 188.001 225.331C186.169 224.999 184.332 224.662 182.5 224.331C181.584 224.163 180.673 223.994 179.757 223.837C178.836 223.673 177.915 223.531 176.994 223.374C175.146 223.069 173.304 222.758 171.461 222.448C169.508 222.123 167.55 221.787 165.597 221.472C163.797 221.182 161.992 220.919 160.187 220.666C153.129 219.681 146.031 218.938 138.923 218.452C135.598 218.224 132.274 218.053 128.944 217.915C127.955 217.873 126.966 217.836 125.977 217.8C125.362 217.777 124.752 217.765 124.137 217.737C121.827 217.634 119.513 217.537 117.204 217.429C114.821 217.322 112.443 217.172 110.06 217.044C109.008 216.987 107.961 216.945 106.909 216.893C104.884 216.794 102.853 216.685 100.828 216.57C96.7825 216.336 92.7368 216.048 88.7013 215.698C88.5751 215.688 88.485 215.578 88.4949 215.457C88.4994 215.32 88.6093 215.23 88.7303 215.24Z" fill="white"/>
<path d="M65.6147 223.25C66.2405 223.246 66.861 223.253 67.4869 223.255C69.7062 223.269 71.9206 223.34 74.1352 223.459C80.7054 223.8 87.2566 224.484 93.7824 225.341C103.355 226.596 112.883 228.209 122.365 230.016C133.273 232.1 144.124 234.447 154.93 237.004C161.133 238.473 167.316 240.031 173.494 241.605C180.667 243.432 187.824 245.295 194.982 247.184C218.108 253.284 241.146 259.706 264.087 266.48C297.068 276.216 329.832 286.69 362.38 297.811C370.283 300.511 378.177 303.254 386.059 306.017C388.315 306.809 390.58 307.59 392.836 308.382C393.605 308.651 394.385 308.92 395.149 309.194C396.329 309.619 397.505 310.059 398.685 310.494C400.335 311.1 401.989 311.696 403.628 312.317C405.267 312.939 406.901 313.587 408.54 314.219C412.098 315.598 415.655 316.987 419.208 318.382C430.808 322.933 442.383 327.558 453.937 332.236C454.385 332.407 454.614 332.905 454.443 333.358C454.272 333.806 453.774 334.035 453.321 333.87C442.044 329.906 430.747 325.994 419.424 322.146C415.635 320.858 411.852 319.58 408.059 318.308C406.752 317.869 405.451 317.434 404.144 317C403.433 316.762 402.711 316.53 402.005 316.281C400.229 315.666 398.459 315.045 396.678 314.429C395.671 314.082 394.659 313.736 393.653 313.384C392.763 313.073 391.882 312.747 390.997 312.426C389.105 311.743 387.208 311.07 385.317 310.392C382.471 309.377 379.615 308.378 376.759 307.38C366.215 303.69 355.645 300.079 345.05 296.532C304.353 282.89 263.335 270.203 222.008 258.584C208.287 254.728 194.53 250.989 180.747 247.375C172.067 245.1 163.383 242.83 154.657 240.74C145.204 238.474 135.711 236.377 126.181 234.47C116.794 232.593 107.361 230.901 97.8819 229.54C92.8451 228.817 87.793 228.188 82.7312 227.707C78.4798 227.305 74.2132 227.003 69.9423 226.885C68.6011 226.851 67.26 226.832 65.9243 226.84C65.2302 226.844 64.5309 226.864 63.8367 226.873C63.3267 226.881 62.8112 226.873 62.3012 226.882C61.4651 226.892 60.6291 226.917 59.7879 226.954C58.2001 227.021 56.6231 227.14 55.041 227.286C54.3682 227.347 53.6955 227.404 53.0227 227.471C51.5038 227.627 49.9904 227.835 48.4878 228.085C47.726 228.211 46.9589 228.347 46.2026 228.503C44.7318 228.812 43.2721 229.193 41.8282 229.601C40.4106 230.004 38.9985 230.443 37.6076 230.929C34.8102 231.908 32.0716 233.054 29.3915 234.31C26.6799 235.582 24.0268 236.975 21.4162 238.436C21.1856 238.569 20.8854 238.497 20.7527 238.266C20.6199 238.036 20.6971 237.736 20.9277 237.603C25.115 235.044 29.419 232.664 33.8985 230.645C36.3744 229.532 38.8981 228.519 41.4647 227.636C42.8556 227.16 44.2625 226.737 45.6748 226.329C46.5569 226.077 47.4389 225.82 48.3264 225.588C50.3743 225.056 52.4489 224.597 54.5399 224.244C55.1126 224.146 55.6959 224.069 56.2739 223.992C57.2828 223.855 58.2971 223.739 59.3063 223.638C60.347 223.538 61.3824 223.448 62.4233 223.378C62.8649 223.35 63.3064 223.316 63.7533 223.297C64.3684 223.268 64.9889 223.253 65.6147 223.25Z" fill="white"/>
<path d="M326.216 1.82773C326.673 1.83564 327.038 2.21221 327.03 2.66977C327.146 11.9405 327.267 21.2059 327.388 30.4765C327.427 33.5527 327.465 36.6342 327.504 39.7156C327.515 40.7516 327.531 41.7875 327.542 42.8234C327.551 43.3387 327.564 43.8487 327.562 44.3641C327.559 45.7946 327.546 47.2303 327.544 48.6607C327.538 49.5284 327.549 50.3961 327.532 51.2586C327.493 53.5465 327.432 55.8344 327.387 58.1223C327.355 59.7895 327.327 61.462 327.3 63.1292C327.157 71.3233 327.03 79.5173 326.898 87.7113C326.447 115.612 325.958 143.513 325.397 171.409C324.945 193.683 324.456 215.957 323.951 238.226C323.733 247.814 323.524 257.407 323.3 266.995C323.055 277.52 322.809 288.039 322.564 298.563C322.479 302.118 322.394 305.679 322.309 309.235C322.279 310.408 322.249 311.586 322.219 312.764C322.207 313.358 322.205 313.952 322.176 314.542C322.116 315.867 322.023 317.193 321.947 318.519C321.908 319.166 321.875 319.818 321.837 320.465C321.818 320.812 321.799 321.159 321.774 321.507C321.652 323.09 321.514 324.669 321.386 326.252C321.327 326.962 321.257 327.673 321.209 328.388C321.126 329.646 321.06 330.908 320.983 332.165C320.647 337.81 320.379 343.454 320.101 349.099C320.097 349.351 319.883 349.552 319.63 349.548C319.378 349.539 319.177 349.33 319.181 349.078C319.18 343.424 319.185 337.771 319.121 332.118C319.109 330.856 319.101 329.594 319.079 328.337C319.064 327.622 319.034 326.907 319.009 326.192C318.952 324.61 318.896 323.022 318.845 321.439C318.832 321.092 318.836 320.74 318.834 320.393C318.83 319.741 318.821 319.094 318.812 318.442C318.799 317.111 318.771 315.781 318.774 314.456C318.775 313.861 318.798 313.272 318.811 312.678C318.836 311.547 318.866 310.411 318.891 309.28C318.967 305.883 319.047 302.485 319.128 299.087C319.36 289.047 319.582 279.007 319.793 268.966C320.008 258.694 320.223 248.423 320.417 238.151C320.789 218.497 321.109 198.843 321.402 179.189C321.852 149.111 322.27 119.033 322.74 88.955C322.871 80.4559 323.012 71.9516 323.137 63.4526C323.164 61.6539 323.19 59.8552 323.217 58.0566C323.246 55.7688 323.254 53.4759 323.288 51.1881C323.299 50.3203 323.336 49.4577 323.363 48.5898C323.402 47.1592 323.441 45.7233 323.486 44.2926C323.503 43.7351 323.532 43.1722 323.56 42.6146C323.607 41.5784 323.654 40.5421 323.7 39.5059C323.841 36.4286 323.981 33.3514 324.116 30.2742C324.532 21.0636 324.953 11.853 325.368 2.64241C325.376 2.18484 325.758 1.81981 326.216 1.82773Z" fill="white"/>
<path d="M63.7946 136.305C64.0523 136.309 64.2587 136.523 64.2549 136.781C64.3562 139.809 64.4628 142.838 64.5747 145.866C64.6122 146.907 64.6496 147.948 64.6924 148.989C64.711 149.499 64.7403 150.014 64.7484 150.524C64.758 151.282 64.7781 152.039 64.7666 152.801C64.7551 153.548 64.733 154.295 64.7215 155.042C64.6991 156.646 64.6819 158.255 64.6648 159.859C64.6069 165.413 64.5543 170.961 64.4965 176.515C64.3918 186.781 64.266 197.042 64.0404 207.303C63.9447 211.758 63.8333 216.207 63.685 220.657C63.5408 224.886 63.3545 229.115 63.1629 233.345C63.1021 234.675 63.0465 236.001 62.991 237.332C62.963 237.958 62.9508 238.584 62.9175 239.204C62.8886 239.672 62.8387 240.146 62.8045 240.614C62.7315 241.651 62.6691 242.687 62.6171 243.723C62.5936 244.202 62.5805 244.686 62.5622 245.165C62.4831 246.969 62.4092 248.773 62.3353 250.577C62.3266 250.903 62.0494 251.168 61.718 251.154C61.3919 251.145 61.1327 250.868 61.1413 250.537C61.1737 248.838 61.2061 247.139 61.1965 245.441C61.1932 244.862 61.1952 244.284 61.1761 243.705C61.1514 243.053 61.1003 242.401 61.0651 241.755C61.0358 241.219 61.0328 240.687 61.0244 240.151C61.0173 239.815 61.0048 239.473 61.0134 239.131C61.0206 238.547 61.0541 237.969 61.0771 237.385C61.1228 236.185 61.1739 234.986 61.2249 233.787C61.3689 230.431 61.5233 227.075 61.6357 223.719C61.9373 214.793 62.0496 205.868 62.1093 196.938C62.1812 186.446 62.2004 175.95 62.288 165.458C62.3134 162.518 62.344 159.573 62.3693 156.633C62.3778 155.345 62.3757 154.056 62.3842 152.768C62.3874 152.415 62.4065 152.063 62.4202 151.71C62.4337 151.305 62.4419 150.9 62.4607 150.495C62.4838 149.933 62.5279 149.37 62.5615 148.807C62.6242 147.818 62.6817 146.829 62.7445 145.84C62.9324 142.815 63.1255 139.785 63.3239 136.76C63.3225 136.507 63.5369 136.301 63.7946 136.305Z" fill="white"/>
<path d="M78.4196 133.203C78.5774 133.207 78.7044 133.338 78.7 133.496C78.7642 136.461 78.8284 139.432 78.8979 142.398C78.9324 143.854 78.9775 145.311 79.0016 146.767C79.0258 148.261 79.0028 149.754 78.9903 151.253C78.9806 152.336 78.9763 153.42 78.9719 154.503C78.9456 159.131 78.9299 163.759 78.9141 168.382C78.8767 180.314 78.8709 192.252 78.7284 204.185C78.6927 207.151 78.6464 210.123 78.5844 213.084C78.5172 216.071 78.4343 219.058 78.3829 222.046C78.3444 224.528 78.3217 227.01 78.3305 229.493C78.3352 230.318 78.3452 231.139 78.3551 231.964C78.3626 232.348 78.3752 232.732 78.3774 233.116C78.3797 233.51 78.3661 233.899 78.3631 234.294C78.3599 234.657 78.3672 235.019 78.3535 235.382C78.3314 236.119 78.2988 236.855 78.2924 237.591C78.2822 238.57 78.2931 239.553 78.2881 240.531C78.2845 241.751 78.2704 242.977 78.2458 244.197C78.2463 244.286 78.1784 244.36 78.089 244.361C77.9996 244.361 77.9256 244.288 77.9251 244.199C77.8547 242.001 77.7423 239.809 77.5616 237.617C77.4941 236.844 77.3898 236.077 77.3329 235.309C77.2762 234.589 77.2247 233.864 77.1996 233.143C77.1814 232.712 77.1842 232.281 77.1765 231.85C77.069 224.961 77.2928 218.076 77.4062 211.192C77.5151 204.449 77.5241 197.702 77.5226 190.96C77.5128 180.921 77.4874 170.888 77.5197 160.848C77.5259 158.235 77.5426 155.626 77.5488 153.012C77.5518 151.682 77.5495 150.351 77.5577 149.021C77.5642 148.311 77.5812 147.606 77.5982 146.901C77.611 146.375 77.6396 145.849 77.6576 145.318C77.6941 144.34 77.7306 143.367 77.7671 142.388C77.887 139.422 78.0069 136.455 78.132 133.488C78.1311 133.331 78.2618 133.198 78.4196 133.203Z" fill="white"/>
<path d="M366.806 2.13881C367.085 2.14249 367.307 2.36735 367.303 2.64083C367.44 11.9061 367.571 21.1715 367.713 30.4368C367.757 33.5129 367.806 36.5943 367.85 39.6705C367.875 41.2217 367.91 42.7676 367.918 44.3189C367.927 45.7493 367.935 47.1849 367.938 48.6153C367.943 49.483 367.953 50.3506 367.947 51.2131C367.938 55.0837 367.907 58.9544 367.892 62.825C367.864 70.8659 367.847 78.912 367.824 86.9529C367.752 113.968 367.663 140.978 367.517 167.993C367.335 200.705 367.084 233.416 366.776 266.122C366.673 276.814 366.571 287.506 366.464 298.198C366.427 301.832 366.389 305.466 366.352 309.105C366.338 310.32 366.329 311.54 366.315 312.755C366.308 313.35 366.306 313.938 366.294 314.533C366.259 315.858 366.214 317.189 366.174 318.514C366.143 319.514 366.128 320.508 366.081 321.507C366.011 323.091 365.936 324.674 365.861 326.252C365.828 326.962 365.79 327.678 365.762 328.393C365.717 329.65 365.682 330.912 365.642 332.175C365.464 337.824 365.317 343.473 365.17 349.127C365.171 349.279 365.046 349.401 364.888 349.402C364.735 349.403 364.608 349.277 364.608 349.119C364.586 343.466 364.564 337.813 364.506 332.165C364.493 330.903 364.486 329.641 364.469 328.384C364.459 327.669 364.434 326.96 364.42 326.244C364.379 324.662 364.339 323.079 364.298 321.491C364.277 320.492 364.276 319.493 364.27 318.499C364.258 317.169 364.234 315.843 364.232 314.513C364.229 313.919 364.241 313.33 364.248 312.735C364.258 311.642 364.267 310.548 364.277 309.459C364.31 306.062 364.343 302.664 364.377 299.262C364.473 289.285 364.568 279.308 364.648 269.332C364.731 258.95 364.814 248.569 364.876 238.188C364.999 219.024 365.069 199.86 365.123 180.702C365.207 150.163 365.244 119.625 365.312 89.0865C365.332 80.5881 365.357 72.0949 365.372 63.5966C365.38 59.4631 365.367 55.3349 365.375 51.2014C365.376 50.3337 365.392 49.4659 365.398 48.5982C365.41 47.1677 365.423 45.732 365.441 44.3015C365.459 42.7027 365.507 41.109 365.54 39.5101C365.602 36.4333 365.663 33.3513 365.725 30.2745C365.914 21.0599 366.104 11.8401 366.293 2.62554C366.302 2.3678 366.527 2.1404 366.806 2.13881Z" fill="white"/>
<path d="M321.35 1.63467C321.655 1.64346 321.898 1.89976 321.89 2.20482C321.842 11.4712 321.8 20.7375 321.758 30.0038C321.744 33.0803 321.73 36.1621 321.716 39.2386C321.709 40.79 321.718 42.336 321.695 43.8875C321.677 45.318 321.649 46.7539 321.63 48.1844C321.614 49.0522 321.609 49.9199 321.587 50.7878C321.494 54.7009 321.374 58.6089 321.281 62.522C321.08 70.6375 320.889 78.753 320.693 86.8685C320.038 114.134 319.368 141.394 318.629 168.661C317.751 201.092 316.804 233.518 315.805 265.944C315.477 276.564 315.148 287.188 314.819 297.808C314.703 301.442 314.592 305.077 314.471 308.717C314.435 309.89 314.4 311.068 314.359 312.241C314.342 312.835 314.329 313.429 314.301 314.019C314.24 315.344 314.153 316.67 314.082 317.996C314.03 318.99 313.988 319.989 313.92 320.983C313.813 322.567 313.696 324.145 313.584 325.729C313.535 326.439 313.476 327.149 313.433 327.865C313.356 329.122 313.295 330.379 313.223 331.642C312.908 337.286 312.641 342.931 312.368 348.575C312.363 348.743 312.217 348.876 312.048 348.871C311.88 348.867 311.743 348.726 311.752 348.552C311.846 342.898 311.94 337.25 311.987 331.596C311.996 330.334 312.015 329.077 312.018 327.815C312.019 327.105 312.01 326.39 312.006 325.675C311.997 324.092 311.983 322.504 311.974 320.921C311.968 319.922 311.989 318.922 311.999 317.928C312.012 316.603 312.015 315.273 312.034 313.947C312.046 313.353 312.069 312.764 312.087 312.17C312.123 311.081 312.159 309.987 312.189 308.898C312.296 305.5 312.398 302.102 312.505 298.704C312.811 288.732 313.117 278.765 313.408 268.792C313.712 258.415 314.015 248.037 314.298 237.66C314.826 218.504 315.306 199.349 315.76 180.194C316.486 149.704 317.17 119.209 317.89 88.7198C318.094 80.1835 318.298 71.6525 318.492 63.1163C318.534 61.2755 318.581 59.4346 318.618 57.5885C318.668 55.3006 318.702 53.0129 318.758 50.725C318.779 49.8571 318.816 48.9892 318.843 48.1266C318.887 46.6959 318.932 45.26 318.981 43.8293C319.035 42.2356 319.121 40.6417 319.186 39.0479C319.321 35.9707 319.456 32.8935 319.585 29.8163C319.985 20.6058 320.385 11.3953 320.785 2.1848C320.789 1.86925 321.045 1.63115 321.35 1.63467Z" fill="white"/>
<path d="M364.869 2.23904C365.096 2.24301 365.281 2.43128 365.277 2.66269C365.229 11.929 365.182 21.1954 365.14 30.4617C365.126 33.5382 365.112 36.6147 365.098 39.6965C365.091 41.2479 365.095 42.794 365.077 44.3454C365.048 46.6437 365.03 48.9472 364.985 51.2455C364.912 55.0744 364.818 58.8981 364.745 62.727C364.585 70.6898 364.436 78.6577 364.281 86.6205C363.77 113.186 363.248 139.746 362.668 166.306C361.946 199.399 361.15 232.482 360.297 265.57C360.017 276.4 359.737 287.229 359.446 298.054C359.351 301.73 359.251 305.406 359.151 309.078C359.116 310.293 359.086 311.508 359.051 312.728C359.033 313.322 359.021 313.911 358.998 314.506C358.947 315.831 358.887 317.157 358.826 318.482C358.784 319.477 358.748 320.476 358.69 321.475C358.567 323.769 358.417 326.063 358.303 328.356C357.969 335.263 357.704 342.169 357.432 349.076C357.428 349.202 357.323 349.303 357.197 349.298C357.071 349.293 356.97 349.189 356.975 349.063C357.083 342.152 357.201 335.241 357.246 328.331C357.259 326.032 357.236 323.735 357.233 321.436C357.233 320.437 357.254 319.438 357.264 318.444C357.277 317.113 357.285 315.788 357.304 314.458C357.311 313.863 357.334 313.274 357.352 312.68C357.382 311.591 357.408 310.497 357.438 309.408C357.525 306.089 357.611 302.771 357.703 299.457C357.962 289.585 358.222 279.712 358.465 269.84C359.193 240.56 359.847 211.275 360.422 181.991C361.03 151.102 361.58 120.214 362.167 89.3251C362.329 80.7522 362.495 72.1794 362.657 63.6013C362.734 59.4727 362.794 55.3389 362.871 51.2102C362.915 48.9119 362.986 46.6133 363.047 44.3149C363.091 42.7212 363.155 41.1222 363.209 39.5284C363.313 36.4514 363.416 33.3744 363.52 30.2921C363.83 21.0821 364.141 11.8669 364.456 2.65683C364.455 2.42019 364.643 2.23506 364.869 2.23904Z" fill="white"/>
<path d="M326.071 1.33904C326.392 1.37403 326.677 1.58802 326.779 1.91875C329.169 8.72063 331.574 15.5172 334.026 22.2924C334.79 24.3968 335.554 26.5066 336.328 28.611C336.729 29.6973 337.14 30.7782 337.53 31.8699C337.835 32.7306 338.124 33.5914 338.423 34.4574C338.701 35.2499 338.99 36.0424 339.257 36.8402C339.417 37.302 339.562 37.7693 339.712 38.2364C340.108 39.4332 340.499 40.6405 340.895 41.8373C341.9 44.8554 342.943 47.8628 344.001 50.8701C348.78 64.4739 353.916 77.9652 359.76 91.1527C362.594 97.5419 365.596 103.862 368.854 110.043C371.247 114.579 373.765 119.045 376.471 123.4C378.939 127.367 381.565 131.248 384.389 134.977C386.148 137.302 388.012 139.547 389.865 141.803C392.126 144.556 394.403 147.304 396.696 150.036C406.041 161.143 415.669 172.058 426.405 181.847C431.083 186.116 435.971 190.149 440.999 193.996C442.747 195.337 444.517 196.652 446.296 197.957C446.888 198.39 447.474 198.818 448.065 199.246C448.329 199.434 448.593 199.622 448.852 199.815C449.111 200.013 449.364 200.217 449.623 200.42C450.035 200.744 450.442 201.063 450.854 201.381C451.578 201.945 452.317 202.493 453.035 203.062C453.342 203.307 453.643 203.563 453.95 203.814C454.689 204.42 455.434 205.02 456.174 205.621C456.491 205.877 456.808 206.143 457.13 206.394C457.5 206.681 457.88 206.957 458.25 207.239C458.883 207.72 459.517 208.195 460.156 208.669C463.394 211.091 466.683 213.439 469.973 215.787C470.184 215.927 470.244 216.216 470.103 216.428C469.962 216.639 469.678 216.698 469.467 216.557C465.984 214.395 462.511 212.211 459.018 210.064C458.295 209.621 457.572 209.173 456.854 208.73C456.543 208.537 456.242 208.339 455.925 208.152C455.529 207.912 455.123 207.683 454.722 207.454C453.936 206.996 453.155 206.537 452.369 206.079C452.026 205.876 451.683 205.683 451.345 205.475C450.517 204.969 449.704 204.427 448.891 203.901C448.411 203.593 447.936 203.28 447.455 202.967C447.26 202.837 447.054 202.717 446.864 202.582C446.326 202.217 445.808 201.82 445.28 201.439C444.287 200.719 443.294 199.994 442.307 199.263C438.431 196.387 434.622 193.427 430.918 190.34C427.293 187.316 423.768 184.17 420.342 180.919C411.676 172.68 403.689 163.754 395.907 154.684C393.006 151.298 390.131 147.891 387.272 144.468C385.143 141.919 383.004 139.37 380.991 136.726C378.225 133.087 375.637 129.315 373.196 125.453C368.919 118.689 365.082 111.653 361.529 104.484C357.23 95.8106 353.351 86.9347 349.724 77.9574C345.959 68.6234 342.487 59.1719 339.172 49.667C338.418 47.5099 337.686 45.3474 336.937 43.185C336.557 42.0881 336.178 40.9911 335.804 39.8942C335.611 39.3273 335.408 38.7605 335.221 38.1936C334.958 37.3905 334.712 36.582 334.46 35.7736C334.187 34.9022 333.909 34.0308 333.641 33.1541C333.507 32.7184 333.388 32.2773 333.26 31.8363C333.029 31.0225 332.793 30.2087 332.568 29.4001C331.94 27.1687 331.312 24.9425 330.694 22.711C328.82 15.9588 326.989 9.20105 325.173 2.43272C325.039 1.997 325.283 1.52757 325.719 1.39363C325.856 1.335 325.966 1.32912 326.071 1.33904Z" fill="white"/>
<path d="M365.343 1.94685C365.537 1.97204 365.706 2.10781 365.765 2.30731C367.559 7.98192 369.437 13.635 371.446 19.2401C372.179 21.2868 372.926 23.323 373.695 25.3591C374.026 26.2407 374.373 27.1169 374.704 27.9933C374.95 28.644 375.185 29.3 375.43 29.9507C375.713 30.7011 376.002 31.4462 376.285 32.2019C376.562 32.9471 376.83 33.6923 377.107 34.4375C377.652 35.9016 378.212 37.3551 378.783 38.8086C380.896 44.1711 383.172 49.4696 385.6 54.6989C388.714 61.4072 392.091 67.9984 395.672 74.4727C400.295 82.8238 405.253 90.9784 410.353 99.0428C413.224 103.586 416.142 108.102 419.075 112.603C420.455 114.715 421.818 116.837 423.229 118.927C424.115 120.242 425.027 121.546 425.949 122.835C428.87 126.92 431.932 130.899 435.052 134.826C439.13 139.956 443.329 144.986 447.617 149.936C452.577 155.661 457.657 161.286 462.895 166.757C464.683 168.624 466.487 170.475 468.317 172.306C469.041 173.032 469.781 173.749 470.506 174.476C470.998 174.972 471.479 175.48 471.966 175.977C472.532 176.557 473.109 177.132 473.675 177.718C474.738 178.811 475.77 179.925 476.854 180.997C477.303 181.442 477.763 181.876 478.223 182.309C479.18 183.214 480.148 184.102 481.131 184.975C483.055 186.678 485.031 188.318 487.101 189.842C487.228 189.931 487.255 190.104 487.166 190.231C487.078 190.358 486.904 190.385 486.777 190.296C484.259 188.607 481.856 186.754 479.495 184.848C478.533 184.069 477.577 183.291 476.626 182.492C475.236 181.327 473.815 180.199 472.446 179.008C471.796 178.444 471.156 177.859 470.522 177.278C470.03 176.834 469.539 176.395 469.063 175.94C468.153 175.067 467.265 174.173 466.376 173.279C464.261 171.161 462.182 169.012 460.119 166.841C453.484 159.863 447.08 152.658 440.875 145.3C437.666 141.489 434.505 137.632 431.422 133.721C428.763 130.344 426.151 126.93 423.649 123.437C421.507 120.446 419.492 117.37 417.465 114.3C414.898 110.413 412.346 106.515 409.821 102.596C403.019 92.0376 396.447 81.3101 390.542 70.2212C388.006 65.4606 385.591 60.6414 383.318 55.7531C381.055 50.8805 378.929 45.9493 376.929 40.9647C376.305 39.4117 375.696 37.848 375.088 36.2843C374.677 35.2244 374.261 34.1592 373.865 33.0886C372.375 29.0215 371.084 24.8796 369.835 20.7322C368.018 14.7212 366.359 8.66188 364.789 2.58106C364.714 2.31329 364.865 2.03897 365.132 1.95856C365.206 1.94763 365.274 1.94198 365.343 1.94685Z" fill="white"/>
<path d="M319.516 0.950658C319.61 0.939603 319.716 0.949522 319.811 0.980536C320.206 1.09924 320.424 1.51345 320.305 1.90854C317.378 12.4639 314.056 22.9058 310.286 33.1925C309.084 36.4756 307.841 39.7379 306.55 42.9899C305.881 44.6765 305.212 46.3684 304.496 48.0343C303.821 49.6053 303.136 51.1763 302.44 52.7369C302.103 53.4961 301.77 54.2552 301.422 55.0092C300.3 57.4399 299.12 59.8447 297.935 62.2442C294.982 68.2297 291.897 74.1424 288.649 79.9719C278.945 97.3707 267.828 113.984 255.368 129.531C249.828 136.446 244.013 143.142 237.955 149.619C229.33 158.839 220.171 167.574 210.563 175.769C208.297 177.696 206.009 179.597 203.696 181.467C201.853 182.955 200 184.422 198.104 185.837C195.093 188.079 191.981 190.2 188.784 192.169C181.836 196.458 174.446 200.06 166.726 202.728C156.759 206.176 146.215 208.072 135.654 207.906C132.162 207.852 128.679 207.567 125.227 207.055C121.548 206.513 117.909 205.693 114.358 204.608C110.16 203.323 106.069 201.647 102.187 199.587C97.1656 196.923 92.472 193.673 88.2434 189.874C83.0739 185.234 78.6203 179.811 75.0053 173.879C74.7665 173.491 74.5486 173.087 74.3254 172.689C73.9163 171.955 73.523 171.21 73.1348 170.46C72.4648 169.155 71.8156 167.828 71.2295 166.48C70.1585 164.025 69.2502 161.495 68.41 158.949C68.2174 158.367 68.0195 157.784 67.8374 157.201C67.4252 155.91 67.0391 154.613 66.6846 153.306C65.068 147.383 63.9661 141.331 63.2794 135.23C63.2462 134.956 63.4342 134.713 63.7075 134.68C63.9807 134.647 64.2289 134.835 64.2621 135.108C64.6397 137.704 65.0908 140.289 65.6366 142.862C66.4903 146.881 67.5805 150.855 68.9383 154.734C69.3392 155.878 69.7611 157.017 70.2093 158.145C70.5774 159.068 70.9875 159.981 71.3976 160.889C72.0845 162.399 72.824 163.883 73.5948 165.351C73.9085 165.949 74.217 166.552 74.5411 167.145C75.1682 168.298 75.8268 169.441 76.5115 170.562C76.8459 171.107 77.1909 171.647 77.5305 172.187C77.8701 172.716 78.1939 173.256 78.5335 173.785C79.2816 174.943 80.0663 176.079 80.8825 177.19C83.4106 180.641 86.2582 183.864 89.3879 186.776C93.4482 190.555 97.9788 193.81 102.848 196.459C106.678 198.541 110.71 200.243 114.872 201.534C118.338 202.608 121.882 203.403 125.472 203.951C128.356 204.387 131.276 204.644 134.19 204.738C144.889 205.092 155.585 203.228 165.673 199.7C173.251 197.048 180.483 193.473 187.285 189.211C190.141 187.423 192.922 185.519 195.624 183.506C197.682 181.974 199.687 180.369 201.677 178.749C203.886 176.948 206.079 175.116 208.24 173.258C217.262 165.497 225.866 157.26 234.026 148.6C240.356 141.88 246.406 134.893 252.176 127.688C264.051 112.853 274.71 97.053 284.082 80.529C287.669 74.2033 291.067 67.7734 294.269 61.2448C295.543 58.6502 296.753 56.0244 297.979 53.4038C298.551 52.1752 299.133 50.9571 299.704 49.7286C300.255 48.5422 300.79 47.3454 301.335 46.1538C302.083 44.5193 302.842 42.89 303.579 41.2451C305.179 37.681 306.72 34.091 308.214 30.4802C312.152 20.9551 315.688 11.2745 318.883 1.47488C318.97 1.17989 319.227 0.978595 319.516 0.950658Z" fill="white"/>
<path d="M364.073 4.4945C364.125 4.48895 364.178 4.49391 364.231 4.50938C364.441 4.57129 364.558 4.79676 364.496 5.0022C363.594 8.12583 362.649 11.2392 361.641 14.3318C358.974 22.5455 355.96 30.6508 352.655 38.6314C351.327 41.8364 349.952 45.0205 348.534 48.1839C347.906 49.5811 347.277 50.9782 346.628 52.365C345.438 54.9065 344.206 57.4325 342.942 59.9376C341.668 62.4639 340.347 64.9641 339.015 67.4538C335.664 73.7151 332.138 79.8775 328.45 85.9408C322.854 95.1441 316.857 104.102 310.475 112.779C304.985 120.241 299.205 127.484 293.112 134.46C282.736 146.336 271.456 157.475 259.122 167.316C249.364 175.102 238.923 182.092 227.769 187.719C225.074 189.081 222.331 190.364 219.555 191.547C217.73 192.325 215.888 193.062 214.041 193.793C211.071 194.966 208.085 196.093 205.078 197.162C193.233 201.373 180.978 204.761 168.416 205.874C164.51 206.217 160.583 206.339 156.659 206.23C153.703 206.147 150.757 205.927 147.815 205.602C144.616 205.252 141.437 204.754 138.273 204.173C137.009 203.938 135.746 203.688 134.482 203.427C133.15 203.15 131.818 202.853 130.512 202.476C127.256 201.538 124.12 200.215 121.134 198.617C115.532 195.63 110.462 191.715 105.93 187.281C103.122 184.536 100.523 181.58 98.1122 178.48C96.9256 176.946 95.765 175.386 94.683 173.777C93.8504 172.541 93.0596 171.278 92.2846 169.999C91.5838 168.841 90.8935 167.667 90.2452 166.477C88.9113 164.029 87.6875 161.527 86.5268 158.999C84.6152 154.85 82.8978 150.621 81.4008 146.307C80.1231 142.628 78.987 138.901 77.9822 135.136C77.95 135.02 78.0177 134.894 78.1332 134.861C78.2487 134.829 78.37 134.897 78.4022 135.012C79.1962 137.769 80.0532 140.514 80.9994 143.222C82.8117 148.413 84.9179 153.502 87.3754 158.421C88.6467 160.97 90.065 163.449 91.5303 165.891C92.2417 167.076 92.9583 168.255 93.7117 169.413C94.4597 170.571 95.2393 171.713 96.0293 172.849C96.9359 174.148 97.8531 175.437 98.8068 176.699C102.706 181.825 107.14 186.57 112.149 190.633C115.562 193.4 119.241 195.856 123.175 197.822C125.77 199.117 128.479 200.195 131.271 200.979C132.44 201.308 133.625 201.559 134.815 201.805C135.878 202.025 136.947 202.235 138.011 202.434C141.38 203.067 144.769 203.589 148.179 203.964C151.263 204.299 154.356 204.513 157.454 204.574C161.325 204.652 165.205 204.498 169.063 204.119C181.199 202.935 193.039 199.618 204.49 195.519C207.524 194.434 210.541 193.287 213.537 192.097C215.316 191.387 217.089 190.673 218.852 189.916C221.596 188.738 224.291 187.466 226.955 186.115C237.988 180.52 248.308 173.572 257.951 165.845C269.882 156.285 280.801 145.516 290.891 134.036C299.021 124.782 306.591 115.041 313.659 104.951C320.957 94.5343 327.717 83.7363 333.911 72.6312C335.421 69.9248 336.899 67.1976 338.34 64.4496C339.287 62.6457 340.213 60.8261 341.139 59.0118C345.148 51.1376 348.974 43.1645 352.467 35.0512C355.446 28.1294 358.193 21.1091 360.682 14.0007C361.754 10.9393 362.767 7.86233 363.738 4.76987C363.784 4.6171 363.92 4.51115 364.073 4.4945Z" fill="white"/>
<path d="M63.6103 137.91C63.8314 137.935 63.9955 138.134 63.9705 138.36C63.7976 141.248 63.5511 144.131 63.2098 146.999C63.0993 147.915 62.9835 148.831 62.852 149.747C62.7963 150.131 62.7459 150.51 62.685 150.894C62.573 151.552 62.4453 152.21 62.3123 152.863C62.164 153.605 61.9735 154.337 61.7936 155.069C61.3622 156.876 60.8833 158.666 60.357 160.447C58.1747 167.874 55.0708 175.054 50.8269 181.542C47.5007 186.625 43.4724 191.249 38.8671 195.209C34.3037 199.132 29.2107 202.411 23.8091 205.05C21.1503 206.348 18.4222 207.499 15.646 208.514C14.7591 208.84 13.8722 209.15 12.9746 209.445C12.5914 209.568 12.2082 209.701 11.825 209.814C11.4837 209.916 11.1371 209.991 10.7958 210.077C10.3966 210.174 10.0028 210.277 9.59832 210.358C8.93647 210.493 8.27453 210.607 7.61268 210.742C5.57987 211.159 3.55233 211.581 1.514 211.95C1.36693 211.982 1.22442 211.888 1.19203 211.741C1.15964 211.594 1.2535 211.452 1.40057 211.419C3.39605 210.914 5.38084 210.376 7.33336 209.713C7.81623 209.547 8.29369 209.355 8.77121 209.174C9.29068 208.971 9.8155 208.784 10.3403 208.592C10.6709 208.469 10.9909 208.336 11.3216 208.223C11.7415 208.079 12.1667 207.95 12.5867 207.811C13.6889 207.442 14.791 207.052 15.8773 206.641C18.9944 205.466 22.0421 204.113 24.9834 202.556C29.3824 200.227 33.5473 197.443 37.3205 194.192C40.8006 191.191 43.9419 187.807 46.6818 184.121C49.9541 179.716 52.6561 174.905 54.8256 169.865C56.5697 165.827 57.9763 161.644 59.1091 157.393C59.3665 156.419 59.6186 155.439 59.8391 154.455C59.9828 153.823 60.1159 153.186 60.2543 152.554C60.3311 152.185 60.4237 151.822 60.5058 151.459C60.5776 151.137 60.6441 150.816 60.7211 150.495C60.8187 150.079 60.9215 149.663 61.0244 149.252C61.2452 148.32 61.4555 147.383 61.6605 146.446C62.2393 143.734 62.7287 141.007 63.1548 138.265C63.1852 138.049 63.3893 137.885 63.6103 137.91Z" fill="white"/>
<path d="M78.2188 133.225C78.3662 133.24 78.4721 133.371 78.4572 133.518C78.2473 136.38 78.0111 139.242 77.7381 142.1C77.609 143.431 77.4956 144.767 77.3296 146.093C77.0377 148.409 76.6459 150.715 76.2435 153.01C75.5457 156.995 74.7163 160.959 73.6763 164.872C72.7856 168.233 71.7422 171.557 70.4511 174.788C69.3051 177.645 67.9589 180.44 66.2961 183.031C65.0815 184.921 63.6929 186.711 62.0768 188.272C61.0412 189.272 59.8839 190.135 58.7477 191.02C57.3707 192.085 55.9884 193.145 54.6008 194.194C50.8881 196.986 47.1016 199.732 43.0495 202.016C41.0366 203.153 38.9545 204.164 36.8085 205.023C35.544 205.53 34.2635 205.984 32.9669 206.396C32.3842 206.584 31.8068 206.771 31.2135 206.927C30.8406 207.024 30.4677 207.11 30.0896 207.201C29.7745 207.277 29.4594 207.352 29.1443 207.417C28.4877 207.552 27.8257 207.672 27.1638 207.802C25.1205 208.208 23.0824 208.619 21.0389 209.009C20.9444 209.031 20.8441 208.968 20.8225 208.869C20.8009 208.769 20.8635 208.679 20.9633 208.657C22.9799 208.178 25.0018 207.693 26.9916 207.109C27.6689 206.91 28.3302 206.686 29.0021 206.471C29.6373 206.268 30.2672 206.07 30.9024 205.872C31.2856 205.748 31.6742 205.641 32.0626 205.518C32.6821 205.325 33.3067 205.122 33.9208 204.913C35.8103 204.266 37.6571 203.509 39.456 202.641C42.3299 201.252 45.0497 199.575 47.6795 197.778C49.7958 196.335 51.8539 194.809 53.896 193.262C55.3203 192.181 56.7392 191.084 58.1476 189.977C59.2051 189.151 60.2681 188.34 61.2304 187.398C62.7679 185.896 64.0886 184.169 65.2405 182.353C66.8458 179.82 68.1398 177.094 69.2441 174.306C70.6905 170.653 71.8103 166.881 72.7615 163.074C73.6562 159.503 74.3773 155.897 75.0035 152.27C75.1562 151.375 75.3088 150.475 75.4457 149.58C75.5421 148.964 75.6228 148.349 75.7192 147.733C75.8258 147.064 75.9272 146.401 76.0391 145.738C76.268 144.369 76.5074 143.001 76.7205 141.632C77.152 138.911 77.5415 136.184 77.9204 133.458C77.9354 133.316 78.0715 133.205 78.2188 133.225Z" fill="white"/>
<path d="M363.225 4.12071C363.383 4.13559 363.521 4.24524 363.569 4.40273C363.633 4.61272 363.513 4.83427 363.303 4.89857C362.38 5.32453 361.447 5.72951 360.502 6.10825C360.072 6.28424 359.647 6.47071 359.206 6.60995C358.529 6.82415 357.82 6.93336 357.121 7.0688C356.128 7.2585 355.135 7.42717 354.137 7.56957C351.783 7.90374 349.402 8.09608 347.025 8.1464C344.748 8.19615 342.465 8.13024 340.187 8.00645C338.246 7.89653 336.305 7.7498 334.369 7.57675C333.753 7.5224 333.132 7.46808 332.517 7.40847C332.206 7.37868 331.891 7.35944 331.58 7.31387C331.443 7.29362 331.348 7.26786 331.212 7.23183C331.09 7.20096 330.964 7.17539 330.838 7.13404C330.59 7.05656 330.353 6.9317 330.105 6.85422C329.921 6.79216 329.736 6.75114 329.547 6.70489C329.046 6.571 328.541 6.46344 328.041 6.35059C327.92 6.3355 327.83 6.22557 327.839 6.10456C327.855 5.98353 327.964 5.8935 328.085 5.90859C328.664 5.9053 329.242 5.90201 329.826 5.86714C329.952 5.86117 330.084 5.85516 330.21 5.84393C330.467 5.81617 330.725 5.74634 330.982 5.71859C331.108 5.70735 331.234 5.70663 331.361 5.6954C331.502 5.68407 331.597 5.67828 331.739 5.68273C331.923 5.6922 332.113 5.71742 332.297 5.73741C332.665 5.77213 333.033 5.80684 333.407 5.84153C334.38 5.93066 335.349 6.01456 336.322 6.08265C339.626 6.3163 342.939 6.42894 346.247 6.30496C349.091 6.19414 351.929 5.93084 354.74 5.47838C355.528 5.35295 356.316 5.21174 357.099 5.04953C357.467 4.97382 357.829 4.87184 358.197 4.80138C358.38 4.76353 358.57 4.73616 358.753 4.70356C359.006 4.66532 359.263 4.64807 359.521 4.62558C359.778 4.59782 360.036 4.57006 360.293 4.53704C361.218 4.43187 362.143 4.3004 363.063 4.15319C363.12 4.11605 363.173 4.11575 363.225 4.12071Z" fill="white"/>
<path d="M77.3812 134.071C77.4967 134.034 77.6179 134.096 77.6554 134.212C77.6929 134.327 77.6305 134.448 77.515 134.486C77.2163 134.666 76.9122 134.836 76.6029 135.006C76.4509 135.091 76.2989 135.182 76.1362 135.246C75.9369 135.326 75.7162 135.364 75.5061 135.412C75.128 135.504 74.7498 135.585 74.3664 135.661C72.8745 135.943 71.3552 136.051 69.8353 136.023C69.099 136.011 68.3625 135.968 67.6311 135.888C67.3732 135.863 67.1207 135.833 66.8627 135.793C66.7785 135.783 66.6891 135.773 66.6048 135.752C66.4205 135.711 66.2779 135.607 66.1196 135.513C65.8928 135.383 65.6398 135.295 65.3974 135.196C65.3342 135.181 65.2918 135.118 65.3019 135.05C65.3173 134.986 65.3749 134.944 65.4434 134.959C65.6959 134.968 65.9641 134.983 66.2163 134.934C66.3896 134.901 66.5524 134.848 66.7313 134.863C66.8943 134.872 67.0628 134.908 67.226 134.928C67.5522 134.968 67.8837 135.003 68.2099 135.023C69.2884 135.095 70.3663 135.073 71.4385 134.973C72.4319 134.878 73.4145 134.725 74.3915 134.525C74.7172 134.46 75.0375 134.389 75.3578 134.303C75.5206 134.26 75.6728 134.207 75.841 134.185C76.0512 134.158 76.2615 134.156 76.477 134.139C76.7873 134.132 77.0869 134.104 77.3812 134.071Z" fill="white"/>
<path d="M352.095 222.279C352.347 222.283 352.595 222.292 352.847 222.306C353.079 222.321 353.31 222.345 353.541 222.349C354.372 222.366 355.203 222.35 355.916 222.857C356.022 222.93 356.122 223.013 356.212 223.107C356.312 223.207 356.387 223.296 356.461 223.411C356.758 223.851 356.856 224.387 356.843 224.907C356.834 225.213 356.794 225.513 356.79 225.818C356.786 226.091 356.819 226.364 356.826 226.638C356.833 226.874 356.834 227.116 356.836 227.353C356.842 228.473 356.812 229.593 356.823 230.713C356.83 231.928 356.842 233.143 356.865 234.358C356.879 234.967 356.903 235.577 356.912 236.182C356.921 236.792 356.909 237.402 356.907 238.012C356.905 238.554 356.876 239.096 356.863 239.637C356.842 240.516 356.821 241.399 356.81 242.278C356.782 244.707 356.817 247.137 356.925 249.566C356.953 249.818 356.765 250.045 356.512 250.073C356.26 250.101 356.033 249.913 356.005 249.66C355.591 247.102 355.261 244.532 354.994 241.957C354.91 241.137 354.832 240.317 354.759 239.497C354.714 239.019 354.664 238.546 354.64 238.067C354.605 237.452 354.57 236.837 354.556 236.222C354.542 235.607 354.555 234.996 354.551 234.381C354.544 233.161 354.532 231.941 354.525 230.721C354.522 230.169 354.519 229.612 354.526 229.059C354.537 228.27 354.554 227.487 354.534 226.698C354.527 226.472 354.515 226.251 354.504 226.025C354.486 225.626 354.541 225.231 354.555 224.836C354.555 224.794 354.554 224.752 354.549 224.715C354.343 224.648 354.122 224.644 353.907 224.64C353.686 224.636 353.465 224.637 353.244 224.623C353.007 224.609 352.771 224.578 352.534 224.569C352.108 224.545 351.677 224.548 351.251 224.555C350.677 224.569 350.099 224.599 349.526 224.613C348.937 224.626 348.348 224.624 347.759 224.67C346.472 224.767 345.195 224.979 343.907 225.055C342.682 225.125 341.456 225.063 340.236 225.002C338.258 224.903 336.254 224.777 334.283 225.046C332.807 225.244 331.216 225.695 330.197 226.852C329.925 227.159 329.711 227.507 329.535 227.876C329.077 228.81 328.841 229.836 328.705 230.863C328.518 232.263 328.521 233.677 328.519 235.087C328.517 235.797 328.516 236.506 328.489 237.217C328.448 238.353 328.37 239.484 328.313 240.62C328.143 243.939 327.967 247.253 327.802 250.573C327.726 252.051 327.645 253.529 327.585 255.007C327.544 256.001 327.528 256.995 327.518 257.989C327.515 258.436 327.529 258.894 327.51 259.341C327.496 259.641 327.471 259.946 327.452 260.246C327.433 260.546 327.419 260.851 327.389 261.151C327.335 261.808 327.223 262.461 327.153 263.119C327.123 263.419 327.104 263.724 327.079 264.024C327.025 264.629 326.97 265.234 326.911 265.839C326.811 266.849 326.685 267.854 326.539 268.854C326.524 268.996 326.398 269.097 326.256 269.082C326.114 269.067 326.013 268.947 326.028 268.805C326.056 268.205 326.079 267.605 326.092 267C326.102 266.101 326.081 265.197 326.039 264.298C326.021 263.898 326.003 263.499 325.975 263.099C325.924 262.447 325.81 261.801 325.753 261.149C325.725 260.85 325.713 260.545 325.69 260.245C325.668 259.946 325.64 259.641 325.627 259.341C325.615 259.089 325.625 258.836 325.623 258.584C325.623 257.569 325.633 256.554 325.664 255.539C325.691 254.723 325.733 253.913 325.771 253.098C325.822 251.993 325.879 250.889 325.931 249.779C326.1 246.286 326.259 242.793 326.418 239.3C326.451 238.585 326.494 237.864 326.516 237.149C326.534 236.502 326.53 235.85 326.526 235.203C326.51 232.306 326.455 229.145 327.897 226.534C328.1 226.159 328.34 225.811 328.617 225.489C329.766 224.152 331.424 223.432 333.12 223.076C335.221 222.632 337.399 222.683 339.529 222.766C340.202 222.793 340.881 222.826 341.559 222.843C341.959 222.857 342.364 222.87 342.764 222.863C343.095 222.856 343.437 222.843 343.768 222.82C344.861 222.746 345.949 222.571 347.042 222.46C347.494 222.415 347.951 222.381 348.404 222.358C348.756 222.345 349.113 222.343 349.466 222.331C350.339 222.326 351.217 222.273 352.095 222.279Z" fill="white"/>
<path d="M354.059 158.651C354.259 158.661 354.459 158.686 354.654 158.743C355.491 158.985 356.063 159.702 356.415 160.463C356.761 161.218 356.928 162.043 357.049 162.862C357.202 163.919 357.25 164.986 357.298 166.048C357.353 167.273 357.407 168.493 357.424 169.718C357.457 171.779 357.432 173.841 357.38 175.897C357.321 178.443 357.236 180.989 357.198 183.534C357.175 185.08 357.189 186.626 357.172 188.178C357.154 189.787 357.106 191.402 357.047 193.011C357.024 193.674 356.954 194.337 356.911 195C356.887 195.4 356.873 195.8 356.849 196.199C356.781 197.199 356.697 198.199 356.635 199.203C356.606 199.661 356.603 200.119 356.585 200.576C356.548 201.576 356.507 202.58 356.465 203.58C356.39 205.247 356.268 206.91 356.062 208.567C356.047 208.725 355.911 208.836 355.753 208.827C355.595 208.812 355.479 208.676 355.494 208.518C355.661 205.462 355.543 202.402 355.316 199.353C355.236 198.302 355.099 197.251 355.035 196.199C355 195.589 354.986 194.979 354.966 194.369C354.954 193.965 354.936 193.56 354.939 193.155C354.936 192.687 354.96 192.219 354.973 191.751C354.994 190.951 355.021 190.152 355.038 189.352C355.059 188.411 355.059 187.475 355.059 186.533C355.057 184.372 355.097 182.21 355.153 180.054C355.26 175.778 355.394 171.491 355.196 167.217C355.172 166.665 355.137 166.107 355.113 165.555C355.065 164.514 354.996 163.468 354.775 162.449C354.683 162.024 354.565 161.588 354.352 161.205C354.283 161.08 354.198 160.938 354.077 160.855C354.019 160.818 353.829 160.84 353.719 160.851C353.514 160.879 353.32 160.917 353.115 160.95C352.752 161.004 352.389 161.001 352.021 161.003C351.627 161.005 351.238 161.008 350.843 161.015C347.809 161.043 344.775 161.071 341.741 161.098C339.495 161.122 337.25 161.155 335.004 161.158C334.673 161.16 334.342 161.151 334.011 161.148C333.343 161.146 332.659 161.15 332.002 161.29C331.813 161.334 331.619 161.387 331.446 161.472C331.394 161.499 331.331 161.531 331.289 161.578C331.284 161.589 331.273 161.6 331.268 161.61C331.258 161.642 331.242 161.673 331.232 161.705C331.19 161.821 331.17 161.952 331.15 162.074C331.099 162.374 331.058 162.679 330.987 162.974C330.94 163.163 330.889 163.353 330.848 163.542C330.771 163.901 330.715 164.264 330.675 164.627C330.555 165.716 330.577 166.81 330.589 167.904C330.642 173.614 330.685 179.32 330.733 185.031C330.772 189.974 330.81 194.917 330.839 199.855C330.848 201.501 330.857 203.147 330.867 204.793C330.872 205.76 330.904 206.733 330.873 207.701C330.842 208.795 330.754 209.884 330.728 210.978C330.711 211.625 330.704 212.282 330.787 212.929C330.836 213.323 330.944 213.711 331.119 214.068C331.162 214.157 331.231 214.283 331.315 214.361C331.547 214.323 331.772 214.243 331.993 214.179C332.255 214.104 332.523 214.049 332.797 214.032C333.401 213.992 334.011 213.988 334.616 214.001C335.068 214.009 335.521 214.038 335.968 214.046C336.446 214.053 336.925 214.04 337.403 214.006C337.945 213.966 338.481 213.921 339.022 213.87C340.152 213.759 341.293 213.642 342.429 213.699C343.186 213.736 343.944 213.869 344.697 213.98C346.35 214.229 348.018 214.524 349.701 214.478C351.773 214.419 353.715 213.75 355.587 212.898C355.839 212.77 356.144 212.874 356.272 213.126C356.4 213.377 356.296 213.683 356.045 213.811C354.855 214.469 353.622 215.071 352.32 215.478C351.344 215.783 350.341 215.978 349.321 216.052C347.76 216.172 346.192 216.033 344.634 215.926C343.893 215.878 343.145 215.798 342.404 215.823C340.979 215.863 339.582 216.218 338.179 216.436C337.507 216.54 336.829 216.591 336.151 216.606C335.625 216.619 335.094 216.617 334.568 216.609C334.131 216.601 333.7 216.588 333.269 216.606C333.163 216.607 333.037 216.608 332.932 216.619C332.732 216.641 332.544 216.71 332.349 216.764C332.113 216.828 331.877 216.893 331.635 216.921C330.841 217.025 330.135 216.782 329.559 216.228C329.125 215.809 328.828 215.269 328.625 214.708C328.518 214.414 328.422 214.115 328.357 213.805C328.222 213.175 328.192 212.523 328.183 211.881C328.164 210.419 328.303 208.962 328.337 207.5C328.354 206.916 328.335 206.337 328.332 205.754C328.326 204.739 328.321 203.724 328.315 202.709C328.263 192.717 328.227 182.726 328.202 172.729C328.198 171.12 328.194 169.511 328.191 167.907C328.187 166.334 328.183 164.762 328.5 163.214C328.572 162.872 328.675 162.54 328.737 162.203C328.854 161.576 328.929 160.94 329.263 160.38C329.7 159.657 330.471 159.259 331.269 159.054C332.577 158.721 333.945 158.839 335.281 158.837C340.518 158.828 345.756 158.819 350.999 158.805C351.336 158.804 351.672 158.807 352.009 158.805C352.23 158.804 352.451 158.818 352.671 158.796C352.934 158.768 353.191 158.709 353.454 158.681C353.654 158.659 353.854 158.647 354.059 158.651Z" fill="white"/>
<path d="M356.874 91.5008C357.11 91.4574 357.337 91.6192 357.381 91.8556C357.715 93.3735 357.866 94.9135 357.891 96.4647C357.938 99.3042 357.597 102.13 357.55 104.965C357.529 105.985 357.535 107 357.53 108.02C357.523 108.52 357.504 109.02 357.491 109.514C357.478 109.956 357.47 110.403 357.452 110.845C357.415 111.729 357.357 112.618 357.314 113.501C357.272 114.385 357.235 115.269 357.193 116.152C356.955 121.623 356.766 127.093 356.702 132.568C356.688 133.73 356.679 134.893 356.68 136.05C356.679 136.865 356.684 137.68 356.678 138.495C356.661 140.146 356.613 141.793 356.68 143.444C356.699 143.975 356.738 144.5 356.805 145.026C356.882 145.646 356.985 146.271 356.994 146.897C357.003 147.554 356.901 148.207 356.631 148.808C356.294 149.567 355.724 150.18 355.075 150.689C354.017 151.52 352.785 152.101 351.488 152.434C348.925 153.09 346.273 152.795 343.664 152.684C342.249 152.623 340.835 152.652 339.42 152.682C338.61 152.697 337.806 152.696 336.996 152.711C336.155 152.726 335.308 152.8 334.467 152.862C334.178 152.885 333.889 152.902 333.595 152.925C333.416 152.937 333.237 152.943 333.064 152.965C332.707 153.014 332.355 153.106 331.997 153.123C331.435 153.158 330.892 153.04 330.449 152.685C329.905 152.252 329.622 151.596 329.445 150.94C329.391 150.735 329.348 150.525 329.299 150.32C329.245 150.073 329.197 149.826 329.179 149.569C329.145 149.096 329.195 148.627 329.219 148.159C329.238 147.822 329.225 147.481 329.229 147.139C329.236 146.539 329.248 145.945 329.266 145.351C329.319 143.589 329.409 141.832 329.425 140.07C329.438 138.639 329.419 137.204 329.422 135.768C329.424 133.365 329.447 130.961 329.486 128.558C329.525 126.154 329.58 123.751 329.655 121.347C329.7 119.895 329.77 118.449 329.82 117.002C329.846 116.124 329.862 115.246 329.873 114.367C329.876 113.925 329.874 113.484 329.887 113.042C329.9 112.663 329.925 112.284 329.943 111.906C329.967 111.401 329.99 110.89 330.024 110.385C330.088 109.496 330.198 108.607 330.288 107.718C330.333 107.276 330.362 106.829 330.406 106.387C330.481 105.629 330.571 104.866 330.667 104.113C330.863 102.598 331.134 101.092 331.499 99.607C331.524 99.4753 331.655 99.3905 331.787 99.416C331.918 99.4415 332.003 99.5725 331.978 99.7041C331.606 101.805 331.434 103.93 331.414 106.065C331.407 106.628 331.4 107.196 331.419 107.764C331.45 108.647 331.529 109.525 331.576 110.403C331.599 110.845 331.607 111.291 331.625 111.733C331.644 112.175 331.667 112.616 331.68 113.058C331.688 113.5 331.675 113.947 331.672 114.394C331.666 115.283 331.651 116.177 331.624 117.066C331.597 117.918 331.56 118.77 331.528 119.622C331.488 120.816 331.447 122.01 331.417 123.204C331.287 128.064 331.246 132.934 331.274 137.793C331.28 138.797 331.29 139.796 331.275 140.801C331.249 142.747 331.145 144.688 331.124 146.634C331.117 147.175 331.136 147.717 331.112 148.253C331.093 148.632 331.054 149.006 331.071 149.384C331.083 149.626 331.148 149.862 331.202 150.099C331.261 150.361 331.32 150.624 331.427 150.871C331.448 150.923 331.475 150.97 331.501 151.017C331.613 151.201 331.65 151.211 331.855 151.194C331.897 151.189 331.939 151.183 331.981 151.178C332.028 151.172 332.076 151.167 332.128 151.156C332.181 151.145 332.238 151.134 332.291 151.123C332.527 151.08 332.764 151.031 333.005 151.009C333.494 150.959 333.988 150.935 334.483 150.895C335.36 150.822 336.243 150.749 337.127 150.733C337.826 150.719 338.531 150.709 339.23 150.689C340.539 150.656 341.854 150.617 343.163 150.641C344.762 150.674 346.357 150.823 347.96 150.787C348.933 150.766 349.911 150.676 350.861 150.439C351.78 150.208 352.656 149.83 353.432 149.289C353.746 149.066 354.049 148.828 354.311 148.537C354.467 148.357 354.608 148.162 354.707 147.946C354.982 147.324 354.873 146.599 354.785 145.947C354.703 145.332 354.61 144.717 354.575 144.097C354.464 142.273 354.501 140.437 354.517 138.612C354.53 137.087 354.511 135.568 354.518 134.043C354.544 128.431 354.722 122.824 354.948 117.217C355.003 115.834 355.064 114.445 355.119 113.062C355.146 112.288 355.168 111.51 355.206 110.731C355.234 110.179 355.273 109.627 355.306 109.069C355.331 108.68 355.349 108.296 355.379 107.906C355.477 106.691 355.57 105.47 355.7 104.255C355.78 103.492 355.886 102.734 355.992 101.971C356.285 99.85 356.62 97.734 356.692 95.588C356.732 94.3835 356.678 93.1848 356.514 91.992C356.476 91.7766 356.637 91.5443 356.874 91.5008Z" fill="white"/>
<path d="M339.234 92.2376C339.397 92.2209 339.576 92.2461 339.739 92.2505C339.965 92.2597 340.186 92.269 340.412 92.2729C341.143 92.2898 341.869 92.291 342.6 92.2815C344.051 92.2628 345.502 92.1651 346.953 92.2042C348.3 92.2386 349.647 92.3835 350.989 92.4968C351.383 92.5314 351.773 92.5607 352.167 92.5795C352.425 92.5938 352.688 92.5818 352.946 92.6066C353.277 92.6311 353.598 92.7291 353.92 92.7904C354.383 92.8825 354.851 92.9534 355.325 93.0086C355.498 92.9918 355.652 93.1172 355.668 93.2906C355.685 93.464 355.56 93.6173 355.386 93.634C354.909 93.784 354.431 93.9129 353.942 94.0209C353.669 94.0855 353.391 94.1555 353.107 94.1834C352.829 94.2113 352.555 94.1813 352.281 94.1618C351.871 94.1378 351.466 94.1086 351.055 94.0741C349.666 93.9558 348.277 93.7796 346.888 93.6823C346.204 93.6389 345.526 93.627 344.842 93.6203C343.701 93.611 342.555 93.6176 341.413 93.5925C340.898 93.5796 340.377 93.5721 339.862 93.5487C339.688 93.5392 339.515 93.5402 339.341 93.5254C339.283 93.5204 339.225 93.5208 339.167 93.5053C339.051 93.4797 338.93 93.4383 338.82 93.3916C338.704 93.3397 338.598 93.2667 338.482 93.22C338.371 93.1733 338.25 93.1424 338.134 93.1063C337.902 93.034 337.671 92.9669 337.434 92.9052C337.339 92.8952 337.27 92.8114 337.28 92.7167C337.29 92.622 337.374 92.5479 337.469 92.5579C337.768 92.5351 338.068 92.5071 338.362 92.4581C338.42 92.4473 338.483 92.4417 338.541 92.4256C338.677 92.3932 338.761 92.3454 338.898 92.3078C339.003 92.2757 339.118 92.2487 339.234 92.2376Z" fill="white"/>
<path d="M358.737 21.4214C358.948 21.4202 359.122 21.5928 359.123 21.8084C359.258 23.2853 359.34 24.7626 359.38 26.2454C359.393 26.666 359.4 27.0867 359.408 27.5073C359.415 27.7913 359.417 28.07 359.408 28.354C359.399 28.7011 359.385 29.0536 359.356 29.4008C359.311 29.8901 359.251 30.3743 359.201 30.8637C359.092 31.9686 358.977 33.0736 358.868 34.1839C358.699 35.8992 358.524 37.6199 358.403 39.3454C358.305 40.6818 358.239 42.0126 358.194 43.3486C357.984 49.0241 357.943 54.6986 357.823 60.3789C357.781 62.3354 357.713 64.2921 357.63 66.2488C357.597 66.9958 357.565 67.7427 357.522 68.4897C357.503 68.8316 357.494 69.184 357.454 69.5261C357.434 69.6997 357.398 69.8682 357.373 70.0367C357.332 70.263 357.302 70.4946 357.25 70.721C357.168 71.0633 357.065 71.4004 356.999 71.7426C356.794 72.7588 356.626 73.7852 356.448 74.8064C356.438 74.9222 356.328 75.0122 356.212 74.9971C356.097 74.9872 356.007 74.8773 356.022 74.7615C356.053 73.7306 356.078 72.6945 356.036 71.664C356.023 71.317 355.969 70.9702 355.94 70.6233C355.918 70.3973 355.917 70.1659 355.91 69.9345C355.904 69.761 355.887 69.5876 355.891 69.4193C355.896 69.251 355.911 69.0773 355.92 68.909C355.939 68.5671 355.958 68.2251 355.977 67.8832C356.025 66.9731 356.062 66.0579 356.099 65.1427C356.18 62.8546 356.22 60.5668 356.238 58.2738C356.274 54.3663 356.241 50.4644 356.287 46.5568C356.308 44.6688 356.345 42.7701 356.429 40.8817C356.55 38.1622 356.829 35.4471 357.098 32.7372C357.177 31.9112 357.267 31.085 357.336 30.2537C357.366 29.9117 357.385 29.5645 357.414 29.2225C357.444 28.8805 357.489 28.5385 357.535 28.1964C357.57 27.9227 357.621 27.649 357.667 27.3752C357.743 26.8963 357.824 26.4172 357.89 25.9383C358.092 24.5646 358.253 23.1859 358.371 21.8021C358.354 21.5919 358.522 21.4174 358.737 21.4214Z" fill="white"/>
<path d="M355.639 73.9586C355.807 73.9156 355.981 74.0197 356.018 74.1878C356.269 74.8017 356.672 75.3516 356.823 76.0081C356.909 76.3704 356.895 76.7439 356.892 77.1173C356.889 77.396 356.869 77.6696 356.818 77.9433C356.767 78.2276 356.674 78.5069 356.576 78.7809C356.457 79.1234 356.301 79.4556 356.108 79.7617C355.889 80.1048 355.607 80.4324 355.266 80.6605C354.454 81.1962 353.507 81.007 352.602 80.9491C352.202 80.9251 351.797 80.9589 351.398 80.9612C350.788 80.9594 350.172 80.9313 349.562 80.9348C346.875 80.9448 344.195 81.2335 341.513 81.3381C340.619 81.3695 339.731 81.3851 338.836 81.3586C338.521 81.3499 338.205 81.3359 337.89 81.3114C337.784 81.3015 337.679 81.3021 337.574 81.2869C337.374 81.2565 337.142 81.1894 336.952 81.1169C336.8 81.0599 336.657 80.9871 336.499 80.9302C336.399 80.8939 336.294 80.8682 336.194 80.832C335.793 80.7028 335.387 80.5736 334.987 80.4392C334.892 80.4187 334.834 80.3296 334.849 80.2348C334.87 80.1401 334.959 80.0817 335.053 80.0969C335.516 80.1364 335.979 80.1601 336.442 80.1364C336.495 80.1361 336.542 80.1358 336.594 80.1303C336.752 80.1136 336.904 80.0707 337.062 80.0487C337.214 80.0268 337.367 80.0154 337.519 80.0041C337.572 79.9985 337.619 79.993 337.672 79.9927C337.819 79.9918 337.977 80.012 338.124 80.0217C338.424 80.041 338.724 80.0498 339.024 80.0586C339.934 80.0797 340.848 80.0535 341.758 80.001C344.302 79.8603 346.83 79.5094 349.38 79.4371C350.048 79.4175 350.721 79.4294 351.389 79.4204C351.873 79.4124 352.346 79.3729 352.83 79.4069C353.208 79.4311 353.593 79.4867 353.971 79.4635C354.129 79.4521 354.308 79.4301 354.438 79.3242C354.784 79.054 355.007 78.5531 355.126 78.1423C355.177 77.9632 355.208 77.7842 355.254 77.6052C355.337 77.2734 355.44 76.9467 355.538 76.6201C355.59 76.4463 355.652 76.2724 355.656 76.0831C355.658 75.4941 355.465 74.9219 355.409 74.3385C355.366 74.1652 355.465 73.9964 355.639 73.9586Z" fill="white"/>
<path d="M335.578 22.2995C335.872 22.2715 336.162 22.312 336.446 22.3787C336.873 22.4867 337.263 22.6948 337.689 22.7976C337.884 22.8438 338.089 22.8479 338.289 22.8678C338.621 22.8975 338.958 22.9166 339.289 22.9358C340.362 22.998 341.44 23.0182 342.513 23.0068C343.007 23.004 343.507 22.9749 344.001 22.9668C344.348 22.9596 344.7 22.9681 345.048 22.9661C345.4 22.9694 345.752 22.9937 346.105 23.0075C346.557 23.0259 347.01 23.0391 347.462 23.0576C349.003 23.1119 350.549 23.1715 352.091 23.2732C352.291 23.2721 352.449 23.4289 352.451 23.6287C352.452 23.8233 352.295 23.9872 352.095 23.9884C350.565 24.118 349.041 24.2897 347.517 24.4666C346.965 24.5276 346.408 24.5939 345.857 24.6549C345.604 24.6826 345.357 24.7156 345.105 24.7328C344.753 24.7558 344.395 24.7894 344.043 24.7967C343.638 24.8095 343.233 24.8013 342.828 24.7983C341.866 24.8038 340.898 24.7988 339.936 24.7569C339.331 24.7288 338.731 24.6954 338.126 24.641C337.789 24.6113 337.463 24.5869 337.136 24.4941C336.852 24.4168 336.583 24.3027 336.309 24.199C336.22 24.168 336.104 24.1266 336.009 24.1008C335.751 24.0339 335.577 24.0717 335.352 24.2255C335.033 24.4377 334.819 24.7807 334.653 25.1182C334.33 25.7722 334.161 26.5094 334.07 27.2303C333.99 27.8776 333.941 28.53 333.903 29.1823C333.796 30.8395 333.764 32.5067 333.631 34.164C333.508 35.7108 333.365 37.2524 333.242 38.7992C333.051 41.2141 332.891 43.6341 332.742 46.054C332.607 48.2845 332.472 50.5151 332.338 52.7403C332.275 53.7609 332.207 54.7815 332.14 55.7968C332.106 56.3282 332.083 56.8647 332.033 57.3961C332.008 57.6382 331.962 57.8751 331.927 58.1172C331.896 58.3119 331.871 58.5119 331.83 58.7067C331.753 59.0437 331.666 59.3755 331.594 59.7125C331.532 59.9968 331.487 60.2863 331.436 60.5759C331.283 61.4392 331.162 62.3076 331.035 63.1708C331.025 63.2812 330.926 63.3607 330.821 63.3508C330.71 63.3409 330.631 63.2467 330.641 63.1362C330.662 62.2631 330.683 61.3847 330.673 60.5118C330.671 60.2226 330.68 59.9281 330.668 59.6336C330.655 59.2919 330.622 58.9503 330.599 58.6033C330.582 58.3142 330.585 58.0249 330.578 57.741C330.577 57.5937 330.566 57.4465 330.571 57.2993C330.58 57.0573 330.605 56.8153 330.619 56.5733C330.653 56.0893 330.682 55.6105 330.716 55.1213C330.798 53.9113 330.87 52.7066 330.937 51.4967C331.166 47.4198 331.364 43.343 331.62 39.2712C331.683 38.298 331.745 37.3248 331.819 36.3567C331.892 35.3729 331.971 34.389 332.012 33.4054C332.082 31.8536 332.116 30.2968 332.212 28.7449C332.27 27.7875 332.327 26.8195 332.548 25.8822C332.825 24.7132 333.339 23.4692 334.366 22.7692C334.727 22.5199 335.147 22.3388 335.578 22.2995Z" fill="white"/>
<path d="M74.537 138.6C74.6527 138.604 74.7685 138.62 74.8844 138.661C74.9845 138.697 75.0478 138.723 75.1427 138.78C75.8709 139.207 75.8286 140.091 75.8433 140.822C75.8445 141.032 75.8719 141.237 75.8941 141.442C75.922 141.726 75.9394 142.01 75.9568 142.289C76.0032 143.061 76.0182 143.84 76.0541 144.613C76.1023 145.69 76.1348 146.768 76.1304 147.846C76.1246 149.603 76.0609 151.36 76.0604 153.116C76.0587 154.673 76.0992 156.234 76.1028 157.791C76.1059 158.343 76.1037 158.89 76.0911 159.442C76.0866 159.579 76.0927 159.721 76.0829 159.858C76.0687 160.131 76.0282 160.41 75.9719 160.679C75.931 160.884 75.8743 161.09 75.8387 161.295C75.7264 161.905 75.6353 162.516 75.5283 163.127C75.5182 163.2 75.4554 163.253 75.3817 163.243C75.308 163.238 75.2499 163.176 75.26 163.102C75.2723 162.492 75.2845 161.871 75.239 161.261C75.222 161.056 75.1841 160.857 75.1619 160.652C75.1288 160.384 75.1062 160.11 75.0994 159.837C75.0963 159.295 75.1143 158.754 75.1112 158.212C75.1095 156.981 75.0815 155.756 75.0587 154.526C75.0367 153.432 75.0305 152.344 75.0348 151.25C75.0401 149.393 75.0558 147.532 74.9558 145.671C74.9325 145.282 74.9093 144.892 74.8913 144.503C74.8501 143.736 74.8247 142.968 74.7678 142.201C74.7449 141.875 74.7115 141.554 74.6781 141.228C74.6447 140.903 74.6639 140.576 74.641 140.245C74.6297 140.103 74.6234 139.93 74.5386 139.809L74.5333 139.804C74.4489 139.752 74.2496 139.848 74.1709 139.88C74.1184 139.901 74.0712 139.922 74.0187 139.944C73.9663 139.97 73.9138 139.992 73.8561 140.018C73.6726 140.103 73.489 140.189 73.2947 140.248C73.1425 140.296 72.9849 140.318 72.8272 140.345C72.5856 140.388 72.3335 140.437 72.0918 140.481C71.7241 140.551 71.351 140.606 70.9725 140.634C70.552 140.663 70.1312 140.66 69.7105 140.652C68.8269 140.641 67.9535 140.562 67.0849 140.399C66.9534 140.389 66.8527 140.268 66.8678 140.137C66.8828 140.005 66.998 139.91 67.1295 139.92C67.9288 139.92 68.7278 139.853 69.5159 139.722C69.952 139.651 70.3826 139.549 70.8186 139.462C71.4909 139.322 72.1689 139.244 72.8413 139.12C73.0777 139.076 73.3031 138.949 73.5182 138.847C73.8435 138.719 74.1898 138.591 74.537 138.6Z" fill="white"/>
<path d="M64.6415 147.217C64.6835 147.217 64.7153 147.254 64.7155 147.29C64.75 147.806 64.7793 148.326 64.8453 148.836C64.8893 149.177 64.9543 149.514 64.9878 149.855C65.0045 150.023 65.0055 150.192 65.017 150.365C65.0345 150.665 65.0519 150.964 65.0694 151.264C65.1103 151.99 65.1618 152.715 65.2185 153.44C65.3722 155.496 65.5627 157.551 65.6585 159.612C65.6828 160.19 65.6809 160.769 65.6789 161.352C65.6807 161.673 65.6931 161.994 65.6634 162.315C65.6384 162.557 65.5977 162.799 65.5676 163.041C65.5326 163.373 65.5347 163.73 65.7623 164.002C66.0006 164.28 66.3695 164.425 66.6963 164.554C66.9967 164.674 67.2919 164.793 67.5975 164.891C68.3983 165.144 69.2454 165.218 70.0812 165.166C70.4334 165.143 70.7855 165.094 71.1323 165.05C71.4897 165.006 71.8418 164.967 72.1991 164.907C72.9083 164.787 73.6121 164.626 74.3158 164.459C74.3893 164.437 74.4632 164.479 74.4899 164.552C74.5114 164.626 74.4697 164.7 74.3962 164.721C73.4149 165.09 72.4231 165.463 71.3989 165.69C70.9262 165.793 70.4479 165.837 69.9642 165.851C68.9231 165.888 67.8969 165.752 66.9218 165.363C66.3051 165.119 65.594 164.908 65.1858 164.347C64.7141 163.703 64.9308 162.961 65.0108 162.24C65.0509 161.882 65.033 161.514 65.0362 161.151C65.0439 160.646 65.0462 160.141 65.0328 159.631C64.9571 157.407 64.7657 155.189 64.6163 152.965C64.5703 152.282 64.5244 151.593 64.4837 150.91C64.466 150.568 64.4324 150.221 64.4357 149.879C64.439 149.532 64.4792 149.19 64.5035 148.843C64.5374 148.327 64.5502 147.812 64.5683 147.297C64.5681 147.254 64.6047 147.217 64.6415 147.217Z" fill="white"/>
<path d="M74.9538 170.245C75.0588 170.213 75.1695 170.265 75.2016 170.37C75.2338 170.475 75.1818 170.58 75.0768 170.613C74.3109 170.938 73.5395 171.242 72.7469 171.488C72.4581 171.579 72.1589 171.67 71.8648 171.74C71.3449 171.864 70.8088 171.92 70.2778 171.955C69.9519 171.977 69.6313 172 69.3049 171.939C69.0575 171.893 68.8203 171.81 68.5728 171.754C68.4412 171.723 68.2991 171.698 68.1625 171.725C67.9944 171.757 67.832 171.874 67.7012 171.985C67.204 172.414 67.0398 173.13 66.9593 173.756C66.8433 174.63 66.8956 175.518 66.9269 176.396C66.9396 176.785 66.9366 177.169 66.9388 177.558C66.9375 180.104 66.9625 182.649 66.9138 185.194C66.8974 186.01 66.8705 186.825 66.8383 187.64C66.8292 187.893 66.8149 188.15 66.8006 188.408C66.791 188.561 66.7918 188.713 66.7717 188.866C66.7264 189.229 66.6285 189.577 66.5568 189.929C66.439 190.477 66.358 191.04 66.2613 191.593C66.2563 191.651 66.204 191.698 66.1461 191.693C66.0883 191.688 66.0459 191.631 66.0508 191.573C66.0687 191.015 66.0917 190.447 66.0623 189.89C66.0509 189.738 66.029 189.585 66.0176 189.428C66.0007 189.228 65.9943 189.023 65.9931 188.818C65.992 188.618 66.0118 188.413 66.0212 188.207C66.0352 187.902 66.0493 187.603 66.0633 187.303C66.0955 186.493 66.112 185.683 66.1232 184.878C66.1444 183.053 66.1182 181.228 66.0868 179.404C66.0715 178.557 66.0667 177.711 66.0461 176.864C66.0126 175.597 65.858 174.309 66.1349 173.056C66.2938 172.335 66.6106 171.623 67.2075 171.167C67.6369 170.844 68.0831 170.7 68.6147 170.781C68.8989 170.821 69.1676 170.92 69.4467 170.981C69.5625 171.007 69.6783 171.022 69.794 171.021C70.4039 170.997 71.0081 170.904 71.6124 170.827C72.0118 170.777 72.4061 170.743 72.8054 170.683C73.5147 170.574 74.2396 170.423 74.9538 170.245Z" fill="white"/>
<path d="M75.8394 172.475C75.9813 172.458 76.1028 172.563 76.1194 172.699C76.2866 173.435 76.417 174.175 76.5054 174.922C76.5494 175.268 76.5934 175.61 76.6059 175.957C76.6184 176.304 76.5994 176.651 76.5751 176.998C76.5556 177.283 76.5415 177.567 76.522 177.851C76.4594 178.866 76.3758 179.887 76.3238 180.902C76.2199 182.99 76.316 185.083 76.2279 187.171C76.2092 187.576 76.1852 187.981 76.1507 188.386C76.1261 188.686 76.0804 188.981 76.0716 189.275C76.0538 189.843 76.1255 190.427 75.9024 190.964C75.8194 191.17 75.6996 191.36 75.5691 191.534C75.3134 191.888 74.9943 192.195 74.6329 192.444C74.2558 192.709 73.8206 192.938 73.3581 192.993C72.8746 193.048 72.4007 192.935 71.922 192.912C71.5485 192.893 71.17 192.911 70.7966 192.913C70.6704 192.914 70.5495 192.92 70.4232 192.91C70.2601 192.895 70.0864 192.87 69.9285 192.844C69.76 192.814 69.5968 192.762 69.4336 192.731C69.3125 192.706 69.1862 192.696 69.0599 192.676C68.6493 192.62 68.2285 192.586 67.818 192.546C67.7392 192.546 67.6757 192.484 67.6752 192.405C67.6748 192.326 67.7375 192.262 67.8164 192.262C68.3105 192.212 68.8098 192.162 69.3036 192.08C69.5138 192.047 69.7185 191.983 69.9234 191.94C70.0862 191.907 70.2544 191.885 70.4173 191.874C70.5803 191.857 70.7486 191.867 70.9116 191.866C71.3218 191.863 71.7371 191.84 72.1422 191.875C72.5105 191.904 72.9055 192.002 73.2785 191.937C73.4203 191.909 73.5462 191.851 73.672 191.782C73.8608 191.681 74.0441 191.559 74.2064 191.421C74.4314 191.231 74.6248 191.014 74.7811 190.766C74.8437 190.671 74.8957 190.571 74.9266 190.46C74.9833 190.255 74.9768 190.034 74.9704 189.823C74.9636 189.566 74.9517 189.308 74.966 189.05C74.9902 188.687 75.0249 188.319 75.0439 187.956C75.067 187.398 75.0796 186.841 75.0817 186.284C75.0845 184.927 75.0295 183.57 75.0375 182.213C75.0389 181.525 75.0613 180.835 75.0994 180.146C75.1468 179.236 75.2206 178.331 75.2732 177.421C75.3019 176.916 75.2991 176.411 75.3488 175.912C75.3887 175.522 75.4496 175.138 75.4894 174.749C75.5593 174.08 75.5975 173.407 75.6042 172.739C75.5983 172.613 75.6975 172.491 75.8394 172.475Z" fill="white"/>
<path d="M67.9399 193.829C68.5395 193.846 69.1344 193.954 69.7239 194.04C70.6134 194.166 71.5029 194.303 72.3872 194.45C72.7978 194.522 73.2031 194.593 73.6085 194.67C73.7138 194.69 73.8243 194.7 73.9297 194.736C74.1772 194.808 74.3938 194.97 74.4951 195.211C74.5377 195.316 74.5542 195.437 74.5759 195.548C74.603 195.695 74.63 195.831 74.6519 195.978C74.7227 196.404 74.7725 196.835 74.8117 197.261C74.8623 197.828 74.8918 198.401 74.9214 198.969C74.9678 199.742 75.0143 200.515 75.0555 201.287C75.1379 202.833 75.215 204.379 75.2974 205.924C75.3502 206.876 75.4187 207.822 75.4241 208.774C75.4281 209.489 75.4164 210.204 75.41 210.92C75.402 212.287 75.394 213.66 75.386 215.032C75.392 215.164 75.2927 215.275 75.156 215.281C75.0246 215.287 74.9136 215.187 74.9023 215.051C74.7522 213.626 74.6022 212.207 74.4521 210.788C74.3853 210.137 74.3027 209.485 74.2464 208.833C74.151 207.766 74.1291 206.694 74.0757 205.626C73.9867 203.844 73.8977 202.067 73.7982 200.285C73.7632 199.691 73.7336 199.097 73.6987 198.503C73.6638 197.919 73.6341 197.336 73.5677 196.752C73.5399 196.49 73.5016 196.222 73.4528 195.959C73.4473 195.912 73.4365 195.864 73.4257 195.817C71.8306 195.521 70.2251 195.252 68.6198 195.013C68.183 194.953 67.7304 194.892 67.2943 194.958C67.0998 194.985 66.8846 195.044 66.7382 195.192C66.5918 195.341 66.5615 195.567 66.5258 195.762C66.4494 196.209 66.4573 196.667 66.4493 197.119C66.4263 198.612 66.419 200.101 66.4117 201.594C66.3983 205.723 66.4165 209.851 66.3033 213.979C66.2812 214.721 66.1539 215.458 66.095 216.2C66.0755 216.473 66.0718 216.747 66.0629 217.026C66.0357 217.799 66.0296 218.577 66.0183 219.35C66.0187 219.424 65.9664 219.482 65.8928 219.488C65.8192 219.488 65.7558 219.436 65.7554 219.362C65.6761 218.358 65.5862 217.354 65.4859 216.351C65.4522 215.983 65.3922 215.61 65.3638 215.242C65.3357 214.916 65.3285 214.585 65.3161 214.253C65.3095 214.017 65.3187 213.775 65.3279 213.538C65.3361 213.138 65.3444 212.739 65.3526 212.339C65.3729 211.282 65.3827 210.225 65.3977 209.168C65.4044 208.5 65.4006 207.832 65.4021 207.164C65.4068 205.208 65.3904 203.251 65.3792 201.295C65.3707 199.802 65.3728 198.303 65.3748 196.804C65.3775 196.357 65.3907 195.91 65.4671 195.473C65.5282 195.12 65.6368 194.789 65.8718 194.514C66.3891 193.922 67.2088 193.801 67.9399 193.829Z" fill="white"/>
<path d="M41.6095 195.777C41.6988 195.771 41.7728 195.839 41.7786 195.923C41.8828 196.675 41.9817 197.432 42.0807 198.188C42.1411 198.64 42.2068 199.097 42.2462 199.549C42.2914 200.107 42.3104 200.669 42.3346 201.226C42.3705 201.989 42.4011 202.746 42.4317 203.508C42.5192 205.948 42.5647 208.398 42.568 210.838C42.572 213.384 42.5444 215.929 42.4905 218.475C42.4744 219.337 42.453 220.2 42.4316 221.062C42.4181 221.467 42.4257 221.877 42.3911 222.277C42.3566 222.688 42.2801 223.088 42.2245 223.493C42.154 224.046 42.1099 224.603 42.0551 225.156C42.0554 225.203 42.0136 225.245 41.9662 225.24C41.9189 225.235 41.8766 225.199 41.8816 225.152C41.8731 224.594 41.8647 224.037 41.83 223.48C41.8067 223.075 41.7518 222.67 41.7442 222.265C41.7431 222.06 41.7525 221.86 41.7566 221.655C41.7653 221.35 41.7741 221.045 41.7829 220.74C41.8043 219.877 41.8205 219.02 41.8366 218.158C41.8747 215.617 41.8708 213.083 41.8301 210.543C41.79 208.108 41.7235 205.668 41.6255 203.234C41.5946 202.424 41.5585 201.615 41.5171 200.805C41.4934 200.348 41.4593 199.896 41.4515 199.443C41.4495 199.086 41.458 198.734 41.4612 198.376C41.4671 197.566 41.4625 196.756 41.4579 195.946C41.4574 195.857 41.5201 195.783 41.6095 195.777Z" fill="white"/>
<path d="M134.072 209.798C134.198 209.807 134.288 209.912 134.278 210.038C134.303 210.68 134.349 211.321 134.41 211.962C134.449 212.393 134.499 212.829 134.507 213.261C134.513 213.466 134.499 213.671 134.495 213.871C134.492 214.286 134.494 214.702 134.491 215.117C134.494 216.595 134.508 218.072 134.474 219.55C134.441 221.065 134.339 222.575 134.3 224.084C134.257 225.678 134.245 227.272 134.217 228.865C134.21 229.428 134.197 229.991 134.179 230.554C134.17 230.811 134.182 231.069 134.152 231.327C134.132 231.5 134.102 231.685 134.055 231.853C134.019 231.98 133.978 232.106 133.947 232.238C133.834 232.701 133.773 233.18 133.702 233.648C133.698 233.717 133.64 233.77 133.572 233.765C133.503 233.76 133.45 233.702 133.455 233.629C133.432 233.156 133.423 232.672 133.363 232.204C133.346 232.073 133.314 231.942 133.298 231.81C133.27 231.642 133.248 231.474 133.237 231.306C133.225 231.132 133.24 230.959 133.244 230.785C133.248 230.527 133.257 230.27 133.261 230.012C133.278 229.323 133.28 228.639 133.286 227.95C133.298 226.399 133.29 224.842 133.307 223.291C133.321 222.039 133.372 220.787 133.38 219.536C133.388 218.021 133.363 216.507 133.36 214.992C133.358 214.613 133.356 214.24 133.359 213.861C133.357 213.53 133.35 213.209 133.379 212.878C133.409 212.52 133.475 212.167 133.526 211.815C133.617 211.209 133.714 210.604 133.831 209.999C133.841 209.878 133.951 209.788 134.072 209.798Z" fill="white"/>
<path d="M222.996 171.492C223.217 171.501 223.392 171.684 223.383 171.905C223.427 174.224 223.488 176.543 223.564 178.856C223.59 179.645 223.615 180.434 223.646 181.228C223.659 181.622 223.682 182.021 223.689 182.416C223.698 182.957 223.706 183.504 223.704 184.046C223.702 184.64 223.674 185.229 223.667 185.824C223.651 186.712 223.645 187.601 223.635 188.495C223.61 191.514 223.606 194.538 223.602 197.556C223.591 204.845 223.616 212.139 223.553 219.428C223.511 224.098 223.416 228.769 223.327 233.439C223.258 237 223.184 240.555 223.136 244.116C223.117 245.457 223.098 246.798 223.085 248.139C223.078 248.76 223.087 249.38 223.064 249.995C223.055 250.306 223.02 250.616 223.001 250.927C222.976 251.237 222.962 251.547 222.932 251.858C222.873 252.426 222.781 252.995 222.737 253.563C222.589 255.273 222.525 256.988 222.456 258.702C222.457 258.823 222.357 258.924 222.231 258.924C222.11 258.925 222.01 258.826 222.009 258.705C221.92 256.991 221.842 255.272 221.711 253.558C221.666 252.985 221.589 252.418 221.528 251.845C221.495 251.482 221.482 251.119 221.459 250.757C221.442 250.499 221.424 250.236 221.418 249.979C221.41 249.463 221.422 248.943 221.43 248.427C221.435 247.549 221.446 246.671 221.457 245.792C221.49 243.315 221.524 240.838 221.557 238.361C221.613 234.417 221.685 230.472 221.721 226.533C221.745 223.367 221.743 220.206 221.73 217.041C221.697 209.352 221.606 201.664 221.615 193.976C221.618 191.694 221.631 189.416 221.644 187.134C221.646 186.54 221.653 185.946 221.655 185.351C221.658 184.904 221.65 184.457 221.658 184.015C221.671 183.468 221.694 182.927 221.722 182.38C221.746 181.885 221.79 181.391 221.83 180.896C221.883 180.154 221.942 179.412 222.001 178.671C222.183 176.403 222.375 174.135 222.588 171.868C222.587 171.652 222.775 171.483 222.996 171.492Z" fill="white"/>
<path d="M290.856 80.6062C291.082 80.6102 291.267 80.7984 291.263 81.0246C291.329 86.1411 291.385 91.2576 291.435 96.3689C291.455 98.1621 291.471 99.9552 291.486 101.743C291.496 102.606 291.512 103.468 291.517 104.336C291.525 107.691 291.429 111.046 291.369 114.402C291.277 119.456 291.19 124.51 291.097 129.57C290.894 140.888 290.658 152.206 290.386 163.525C290.228 169.958 290.049 176.395 289.875 182.828C289.437 199.149 289.004 215.469 288.581 231.79C288.443 237.144 288.31 242.493 288.178 247.847C288.135 249.646 288.088 251.44 288.045 253.238C288.024 254.085 288.008 254.932 287.981 255.779C287.959 256.452 287.905 257.12 287.871 257.788C287.833 258.462 287.811 259.135 287.762 259.803C287.669 261.087 287.55 262.371 287.468 263.66C287.227 267.516 287.06 271.382 286.882 275.243C286.878 275.369 286.773 275.47 286.647 275.465C286.52 275.461 286.42 275.356 286.425 275.23C286.434 271.364 286.459 267.499 286.406 263.634C286.388 262.346 286.328 261.058 286.3 259.764C286.285 259.038 286.292 258.307 286.287 257.577C286.284 256.961 286.27 256.341 286.282 255.725C286.297 254.574 286.337 253.416 286.362 252.265C286.422 249.856 286.477 247.447 286.537 245.038C286.704 238.316 286.86 231.595 287.022 224.873C287.463 206.207 287.867 187.546 288.281 168.88C288.629 153.275 288.893 137.671 289.162 122.066C289.216 118.732 289.281 115.397 289.326 112.063C289.345 110.769 289.348 109.47 289.372 108.176C289.446 104.479 289.624 100.786 289.777 97.0883C289.999 91.7283 290.221 86.363 290.427 80.9978C290.442 80.7821 290.63 80.6022 290.856 80.6062Z" fill="white"/>
<path d="M396.825 168.137C397.061 168.136 397.257 168.329 397.258 168.566C397.411 172.362 397.549 176.158 397.686 179.96C397.735 181.269 397.78 182.583 397.829 183.898C397.854 184.544 397.879 185.191 397.898 185.838C397.96 188.341 397.916 190.849 397.904 193.353C397.888 197.071 397.878 200.789 397.857 204.507C397.82 212.853 397.752 221.194 397.636 229.535C397.565 234.505 397.467 239.475 397.374 244.44C397.153 256.452 396.937 268.465 396.732 280.477C396.665 284.401 396.608 288.324 396.546 292.248C396.528 293.583 396.504 294.919 396.48 296.255C396.468 296.871 396.471 297.491 396.448 298.107C396.435 298.569 396.396 299.027 396.372 299.485C396.343 300.016 396.32 300.553 396.281 301.084C396.208 302.005 396.108 302.92 396.039 303.841C395.985 304.541 395.953 305.246 395.914 305.951C395.785 308.139 395.692 310.327 395.594 312.521C395.59 312.652 395.485 312.758 395.354 312.753C395.222 312.749 395.116 312.644 395.121 312.513C395.087 310.32 395.059 308.127 394.994 305.935C394.974 305.23 394.965 304.525 394.935 303.826C394.893 302.906 394.819 301.986 394.772 301.061C394.748 300.53 394.739 299.994 394.726 299.463C394.713 299 394.694 298.542 394.692 298.08C394.687 297.244 394.714 296.407 394.725 295.571C394.752 293.846 394.774 292.121 394.801 290.396C394.873 285.484 394.945 280.572 395.011 275.654C395.21 261.559 395.372 247.465 395.528 233.365C395.651 222.52 395.684 211.677 395.722 200.833C395.732 197.961 395.742 195.09 395.741 192.218C395.742 191.43 395.738 190.646 395.733 189.863C395.731 189.452 395.723 189.042 395.731 188.632C395.742 187.701 395.752 186.765 395.779 185.834C395.796 185.187 395.829 184.54 395.852 183.893C395.902 182.583 395.947 181.268 395.998 179.959C396.134 176.161 396.27 172.363 396.396 168.566C396.394 168.329 396.588 168.139 396.825 168.137Z" fill="white"/>
<path d="M379.722 51.2249C379.832 51.2243 379.917 51.3132 379.918 51.4236C379.949 56.0986 379.966 60.7736 379.987 65.4486C379.996 67.9307 380.015 70.418 380.013 72.9002C380.01 75.9556 379.959 79.0113 379.924 82.0669C379.871 86.6266 379.818 91.1863 379.759 95.7461C379.629 106.101 379.483 116.457 379.3 126.807C379.172 133.934 379.023 141.06 378.879 148.187C378.588 162.64 378.297 177.093 378.006 191.546C377.911 196.222 377.822 200.902 377.733 205.578C377.688 207.876 377.654 210.175 377.599 212.473C377.581 213.083 377.558 213.693 377.536 214.304C377.513 214.929 377.495 215.55 377.467 216.176C377.416 217.36 377.349 218.543 377.309 219.727C377.176 223.282 377.07 226.838 376.959 230.394C376.959 230.451 376.907 230.504 376.849 230.505C376.786 230.505 376.739 230.453 376.738 230.395C376.765 226.834 376.798 223.279 376.799 219.719C376.797 218.536 376.78 217.353 376.773 216.164C376.77 215.538 376.782 214.913 376.783 214.287C376.785 213.677 376.782 213.067 376.789 212.457C376.829 209.333 376.906 206.209 376.967 203.084C377.081 197.178 377.194 191.277 377.303 185.376C377.646 167.073 377.983 148.765 378.295 130.463C378.52 117.251 378.676 104.035 378.832 90.8238C378.871 87.4369 378.909 84.05 378.948 80.6578C378.961 79.2326 378.963 77.8022 378.987 76.3769C379.04 72.8321 379.13 69.2819 379.21 65.737C379.32 60.9666 379.424 56.191 379.523 51.4206C379.523 51.3154 379.612 51.2255 379.722 51.2249Z" fill="white"/>
<path d="M253.187 179.834C253.261 179.834 253.324 179.896 253.325 179.975C253.348 181.337 253.372 182.699 253.396 184.066C253.41 184.75 253.424 185.428 253.433 186.112C253.443 186.864 253.421 187.621 253.409 188.373C253.394 189.383 253.384 190.387 253.369 191.392C253.33 194.784 253.292 198.176 253.264 201.568C253.222 207.154 253.159 212.734 253.085 218.314C253.064 220.028 253.036 221.743 253.015 223.457C253.004 224.299 253.003 225.145 252.976 225.987C252.954 226.697 252.885 227.407 252.841 228.112C252.784 229.106 252.742 230.106 252.7 231.105C252.701 231.147 252.664 231.179 252.622 231.179C252.58 231.18 252.548 231.143 252.548 231.101C252.537 230.102 252.526 229.108 252.494 228.109C252.474 227.399 252.418 226.689 252.414 225.98C252.41 225.322 252.433 224.665 252.445 224.002C252.463 222.703 252.477 221.399 252.496 220.1C252.542 216.092 252.587 212.09 252.596 208.083C252.614 202.966 252.617 197.854 252.672 192.737C252.685 191.396 252.704 190.06 252.717 188.719C252.728 187.846 252.728 186.973 252.76 186.1C252.788 185.416 252.826 184.737 252.859 184.053C252.925 182.691 252.986 181.329 253.051 179.966C253.051 179.893 253.114 179.834 253.187 179.834Z" fill="white"/>
<path d="M304.51 122.716C304.589 122.715 304.653 122.783 304.653 122.857C304.681 124.934 304.708 127.006 304.736 129.083C304.752 130.124 304.774 131.165 304.78 132.206C304.791 133.31 304.776 134.41 304.767 135.514C304.755 137.055 304.742 138.596 304.735 140.137C304.706 145.149 304.682 150.16 304.668 155.172C304.65 163.918 304.61 172.663 304.544 181.409C304.522 183.976 304.505 186.547 304.483 189.114C304.474 190.397 304.476 191.68 304.452 192.963C304.432 194.047 304.359 195.125 304.318 196.204C304.258 197.724 304.219 199.244 304.181 200.764C304.181 200.806 304.144 200.838 304.102 200.838C304.06 200.838 304.023 200.802 304.023 200.76C304.009 199.24 303.995 197.72 303.96 196.195C303.938 195.112 303.879 194.034 303.879 192.951C303.873 191.947 303.893 190.947 303.898 189.943C303.914 188.055 303.924 186.172 303.94 184.284C303.979 178.168 304.007 172.046 304.004 165.93C303.999 157.642 303.983 149.349 304.031 141.056C304.042 139.341 304.048 137.622 304.059 135.907C304.065 135.16 304.061 134.408 304.067 133.662C304.09 132.079 304.139 130.495 304.188 128.907C304.25 126.887 304.307 124.862 304.369 122.843C304.374 122.779 304.431 122.716 304.51 122.716Z" fill="white"/>
<path d="M207.253 195.877C207.326 195.877 207.39 195.939 207.39 196.013C207.432 196.838 207.468 197.664 207.51 198.494C207.528 198.889 207.556 199.283 207.569 199.683C207.582 200.124 207.574 200.571 207.571 201.013C207.569 201.623 207.562 202.233 207.561 202.843C207.556 204.789 207.562 206.74 207.573 208.686C207.592 212.104 207.596 215.527 207.578 218.946C207.573 219.877 207.568 220.807 207.563 221.738C207.56 222.191 207.563 222.643 207.555 223.095C207.547 223.542 207.476 223.979 207.436 224.421C207.387 225.01 207.359 225.599 207.33 226.189C207.331 226.231 207.299 226.262 207.257 226.263C207.215 226.263 207.178 226.231 207.183 226.189C207.159 225.601 207.14 225.012 207.099 224.423C207.065 223.981 207.005 223.54 207.003 223.098C206.991 222.004 207.011 220.905 207.015 219.811C207.018 217.413 207.014 215.01 206.985 212.612C206.941 209.426 206.891 206.239 206.894 203.047C206.895 202.368 206.897 201.695 206.893 201.017C206.891 200.738 206.884 200.46 206.893 200.181C206.906 199.576 206.95 198.971 206.983 198.361C207.031 197.577 207.079 196.798 207.127 196.014C207.116 195.936 207.179 195.877 207.253 195.877Z" fill="white"/>
<path d="M162.607 207.227C162.644 207.227 162.67 207.258 162.67 207.29C162.689 207.789 162.729 208.289 162.726 208.788C162.728 209.183 162.704 209.577 162.696 209.977C162.68 210.776 162.663 211.576 162.647 212.375C162.627 213.574 162.597 214.774 162.567 215.973C162.554 216.525 162.552 217.083 162.524 217.635C162.515 217.824 162.479 218.014 162.454 218.198C162.428 218.403 162.414 218.603 162.399 218.808C162.399 218.829 162.378 218.845 162.363 218.845C162.342 218.845 162.331 218.83 162.331 218.809C162.324 218.604 162.318 218.399 162.306 218.194C162.295 218.004 162.267 217.815 162.266 217.626C162.264 217.179 162.287 216.732 162.295 216.29C162.316 215.354 162.332 214.418 162.337 213.481C162.347 212.361 162.351 211.241 162.376 210.121C162.384 209.679 162.382 209.232 162.405 208.785C162.434 208.285 162.489 207.79 162.539 207.291C162.539 207.259 162.57 207.227 162.607 207.227Z" fill="white"/>
<path d="M175.816 201.214C175.974 201.219 176.101 201.344 176.096 201.502C176.176 202.622 176.261 203.741 176.341 204.861C176.376 205.366 176.426 205.865 176.45 206.37C176.48 207.037 176.452 207.711 176.44 208.379C176.425 209.32 176.419 210.267 176.409 211.208C176.374 214.353 176.34 217.498 176.3 220.643C176.253 224.54 176.207 228.437 176.15 232.334C176.131 233.554 176.117 234.78 176.103 236C176.1 236.426 176.092 236.852 176.089 237.278C176.085 237.488 176.092 237.704 176.072 237.914C176.052 238.177 176.027 238.451 175.987 238.714C175.946 238.983 175.879 239.246 175.844 239.509C175.733 240.299 175.68 241.098 175.616 241.898C175.616 241.987 175.543 242.056 175.454 242.051C175.364 242.052 175.296 241.984 175.3 241.894C175.254 241.095 175.218 240.291 175.124 239.497C175.091 239.229 175.031 238.967 174.998 238.699C174.965 238.436 174.937 238.163 174.925 237.9C174.908 237.637 174.922 237.369 174.926 237.101C174.929 236.727 174.932 236.354 174.935 235.98C174.945 234.865 174.959 233.75 174.969 232.63C174.992 229.275 174.994 225.92 174.98 222.565C174.964 218.894 174.965 215.224 174.996 211.553C175.006 210.485 175.016 209.423 175.026 208.355C175.032 207.687 175.013 207.014 175.061 206.346C175.1 205.783 175.171 205.225 175.22 204.662C175.325 203.605 175.424 202.542 175.528 201.484C175.533 201.337 175.663 201.215 175.816 201.214Z" fill="white"/>
<path d="M107.543 205.604C107.617 205.604 107.675 205.666 107.676 205.74C107.721 206.392 107.767 207.044 107.813 207.696C107.836 208.022 107.864 208.347 107.876 208.673C107.894 209.089 107.886 209.504 107.883 209.92C107.886 210.44 107.884 210.956 107.887 211.476C107.892 213.312 107.897 215.147 107.902 216.982C107.91 219.296 107.913 221.61 107.91 223.919C107.909 224.602 107.913 225.286 107.911 225.964C107.913 226.275 107.92 226.585 107.912 226.895C107.903 227.269 107.832 227.642 107.797 228.011C107.757 228.442 107.739 228.879 107.715 229.315C107.715 229.357 107.678 229.389 107.642 229.389C107.6 229.39 107.568 229.353 107.568 229.316C107.544 228.88 107.515 228.443 107.476 228.012C107.442 227.639 107.372 227.272 107.359 226.898C107.347 226.525 107.355 226.157 107.358 225.783C107.354 225.1 107.356 224.416 107.352 223.732C107.341 221.813 107.32 219.894 107.288 217.969C107.254 215.855 107.232 213.736 107.22 211.622C107.216 211.002 107.218 210.376 107.215 209.75C107.213 209.392 107.2 209.035 107.214 208.677C107.227 208.283 107.262 207.888 107.291 207.493C107.33 206.91 107.369 206.326 107.407 205.742C107.412 205.663 107.47 205.605 107.543 205.604Z" fill="white"/>
<path d="M88.5648 189.015C88.6384 189.015 88.7019 189.078 88.7023 189.151C88.7481 189.803 88.7938 190.455 88.8396 191.107C88.8625 191.433 88.8907 191.759 88.903 192.085C88.9212 192.5 88.9077 192.916 88.9101 193.331C88.9078 193.852 88.9107 194.367 88.9137 194.888C88.9189 196.723 88.9188 198.558 88.924 200.394C88.9266 202.707 88.9345 205.021 88.9318 207.33C88.9305 208.014 88.9343 208.697 88.9329 209.376C88.9347 209.686 88.9417 209.996 88.9329 210.306C88.9246 210.68 88.8583 211.054 88.8236 211.427C88.784 211.859 88.7655 212.295 88.7364 212.727C88.7366 212.769 88.7052 212.8 88.6632 212.801C88.6211 212.801 88.5893 212.764 88.5891 212.727C88.5656 212.291 88.5369 211.86 88.4976 211.429C88.4587 211.056 88.3935 210.688 88.3808 210.31C88.3682 209.936 88.3766 209.563 88.3797 209.189C88.3758 208.506 88.372 207.827 88.3733 207.144C88.3624 205.224 88.341 203.3 88.309 201.38C88.276 199.267 88.2534 197.147 88.2414 195.033C88.2379 194.413 88.2396 193.787 88.2361 193.167C88.234 192.809 88.2214 192.446 88.2352 192.089C88.2487 191.694 88.2833 191.299 88.3126 190.91C88.3514 190.326 88.3901 189.737 88.4288 189.153C88.4284 189.074 88.4859 189.016 88.5648 189.015Z" fill="white"/>
</mask>
<g mask="url(#mask0_34_140)">
<rect width="553.889" height="374.572" rx="6.07893" transform="matrix(-0.999984 0.00568321 0.00568321 0.999984 540.128 -7.57917)" fill="white"/>
</g>
</svg>
