<svg width="288" height="81" viewBox="0 0 288 81" fill="none" xmlns="http://www.w3.org/2000/svg">
<g clip-path="url(#clip0_1067_1120)">
<path d="M159.853 37.565L152.55 30.3022C151.39 29.1477 150.738 27.5797 150.738 25.9446V8.90057C150.735 4.00593 146.729 0 141.835 0H8.90057C4.00593 0 0 4.00593 0 8.90057V71.3442C0 76.2388 4.00593 80.2448 8.90057 80.2448H141.835C146.729 80.2448 150.735 76.2388 150.735 71.3442V56.6361C150.735 55.0064 151.382 53.4437 152.534 52.2919L159.861 44.9647C161.907 42.9214 161.902 39.6029 159.853 37.565Z" fill="url(#paint0_linear_1067_1120)"/>
<path d="M130.346 14.4503C133.627 14.4503 136.287 17.1111 136.287 20.3921V59.8553C136.287 63.1363 133.627 65.7971 130.346 65.7971C127.065 65.7971 124.404 63.1363 124.404 59.8553V20.3921C124.404 17.1111 127.062 14.4503 130.346 14.4503Z" fill="white"/>
<path d="M111.111 39.3156H110.703C110.652 39.3156 110.601 39.321 110.547 39.3236C110.496 39.3236 110.445 39.3156 110.391 39.3156H104.525C101.359 39.3156 98.5962 41.7025 98.3922 44.8627C98.1693 48.3236 100.908 51.1991 104.321 51.1991C104.946 51.1991 105.403 51.8059 105.215 52.402C104.686 54.0828 103.33 55.4225 101.552 55.8924C99.8823 56.3327 98.1076 56.5529 96.2335 56.5529C93.0062 56.5529 90.1333 55.8575 87.6148 54.4613C85.0964 53.0678 83.1283 51.1239 81.7107 48.6296C80.293 46.1353 79.5842 43.3 79.5842 40.1211C79.5842 36.8938 80.293 34.0316 81.7107 31.54C83.1283 29.0457 85.1098 27.1152 87.6524 25.7459C90.1951 24.3766 93.1055 23.6919 96.3812 23.6919C100.151 23.6919 103.52 24.7149 106.49 26.7581C108.375 28.0576 110.939 28.0362 112.738 26.6212C115.541 24.4142 115.385 20.1424 112.483 18.2012C111.113 17.2857 109.634 16.499 108.042 15.8438C104.374 14.3295 100.29 13.5697 95.7932 13.5697C90.4125 13.5697 85.5716 14.7081 81.2703 16.9796C76.9664 19.2537 73.6048 22.4085 71.183 26.4413C68.7639 30.4768 67.553 35.0358 67.553 40.1211C67.553 45.2063 68.7639 49.7654 71.183 53.8008C73.6048 57.8363 76.9422 60.9884 81.1952 63.2626C85.4508 65.5367 90.2407 66.6724 95.573 66.6724C99.289 66.6724 102.981 66.1086 106.648 64.9863C106.686 64.9755 106.721 64.9648 106.758 64.9514C112.48 63.1766 116.33 57.8148 116.33 51.8247V44.5378C116.336 41.6569 113.997 39.3156 111.111 39.3156Z" fill="white"/>
<path d="M61.5415 20.3169V59.9278C61.5415 63.1685 58.9129 65.7971 55.6722 65.7971H54.5579C52.802 65.7971 51.1373 65.0104 50.0231 63.6518L30.5063 39.8874C29.0537 38.1181 26.1835 39.1464 26.1835 41.434V59.9278C26.1835 63.1685 23.5576 65.7971 20.3142 65.7971C17.0735 65.7971 14.4449 63.1712 14.4449 59.9278V20.3169C14.4449 17.0762 17.0735 14.4476 20.3142 14.4476H21.4956C23.2542 14.4476 24.9216 15.237 26.0358 16.5983L45.4748 40.3412C46.9273 42.1132 49.8002 41.0876 49.8002 38.7973V20.3169C49.8002 17.0762 52.4261 14.4476 55.6695 14.4476C58.9156 14.4503 61.5415 17.0762 61.5415 20.3169Z" fill="white"/>
<path d="M185.927 20.3464H180.237V16.9929H195.729V20.3464H190.04V34.7726H185.927V20.3464Z" fill="#7A97AB"/>
<path d="M214.752 34.7726L211.324 29.8189H211.12H207.538V34.7726H203.425V16.9929H211.12C215.869 16.9929 218.841 19.4577 218.841 23.4448C218.841 26.111 217.496 28.0656 215.185 29.0564L219.172 34.7699H214.752V34.7726ZM210.894 20.3464H207.541V26.5432H210.894C213.407 26.5432 214.677 25.3753 214.677 23.4448C214.677 21.4902 213.407 20.3464 210.894 20.3464Z" fill="#7A97AB"/>
<path d="M227.425 26.9487V16.9929H231.538V26.7956C231.538 30.1733 233.013 31.5695 235.501 31.5695C238.015 31.5695 239.464 30.1733 239.464 26.7956V16.9929H243.527V26.9487C243.527 32.1816 240.53 35.076 235.475 35.076C230.419 35.076 227.425 32.1816 227.425 26.9487Z" fill="#7A97AB"/>
<path d="M251.681 33.0194L253.077 29.921C254.575 31.0137 256.812 31.7762 258.944 31.7762C261.382 31.7762 262.372 30.9627 262.372 29.8726C262.372 26.546 252.035 28.8309 252.035 22.2286C252.035 19.2054 254.473 16.6923 259.526 16.6923C261.76 16.6923 264.048 17.2266 265.696 18.2656L264.426 21.3882C262.775 20.4485 261.073 19.9921 259.499 19.9921C257.062 19.9921 256.122 20.9076 256.122 22.0245C256.122 25.3002 266.459 23.0395 266.459 29.5665C266.459 32.5388 263.997 35.0787 258.917 35.0787C256.1 35.076 253.254 34.2383 251.681 33.0194Z" fill="#7A97AB"/>
<path d="M278.195 20.3464H272.505V16.9929H287.997V20.3464H282.308V34.7726H278.195V20.3464Z" fill="#7A97AB"/>
<path d="M181.126 56.4911C181.126 51.1319 185.239 47.2979 190.776 47.2979C193.85 47.2979 196.414 48.4148 198.089 50.4473L195.447 52.8852C194.253 51.5132 192.754 50.8017 190.977 50.8017C187.65 50.8017 185.288 53.1376 185.288 56.4911C185.288 59.8446 187.65 62.1805 190.977 62.1805C192.754 62.1805 194.253 61.469 195.447 60.0728L198.089 62.5107C196.414 64.5674 193.847 65.6843 190.749 65.6843C185.242 65.6843 181.126 61.8502 181.126 56.4911Z" fill="#7A97AB"/>
<path d="M222.651 47.6013V65.3783H218.538V58.0887H210.462V65.3783H206.348V47.6013H210.462V54.6117H218.538V47.6013H222.651Z" fill="#7A97AB"/>
<path d="M244.061 61.5709H235.808L234.234 65.3809H230.019L237.942 47.6039H242.004L249.954 65.3809H245.637L244.061 61.5709ZM242.767 58.4457L239.948 51.6393L237.129 58.4457H242.767Z" fill="#7A97AB"/>
<path d="M257.295 47.6013H261.408V65.3783H257.295V47.6013Z" fill="#7A97AB"/>
<path d="M287.415 47.6013V65.3783H284.037L275.174 54.5848V65.3783H271.112V47.6013H274.514L283.352 58.3948V47.6013H287.415Z" fill="#7A97AB"/>
</g>
<defs>
<linearGradient id="paint0_linear_1067_1120" x1="1.38213" y1="77.9322" x2="147.096" y2="3.46824" gradientUnits="userSpaceOnUse">
<stop stop-color="#FF00FF"/>
<stop offset="0.1064" stop-color="#FF1EE3"/>
<stop offset="0.436" stop-color="#FE7691"/>
<stop offset="0.7048" stop-color="#FDB755"/>
<stop offset="0.8994" stop-color="#FCDF2F"/>
<stop offset="1" stop-color="#FCEE21"/>
</linearGradient>
<clipPath id="clip0_1067_1120">
<rect width="288" height="80.2475" fill="white"/>
</clipPath>
</defs>
</svg>
