<svg width="44" height="44" viewBox="0 0 44 44" fill="none" xmlns="http://www.w3.org/2000/svg">
<mask id="mask0_346_615" style="mask-type:luminance" maskUnits="userSpaceOnUse" x="0" y="0" width="44" height="44">
<path d="M44 0H0V44H44V0Z" fill="white"/>
</mask>
<g mask="url(#mask0_346_615)">
<path d="M1.14929 12.1572L3.91929 12.1534L6.68928 12.1495L9.66301 19.4651L12.6369 26.7804L15.9789 21.4334L19.3212 16.0861L22.0891 16.0851L24.8573 16.0838L28.1898 21.4125L31.5224 26.7414L31.5314 26.7557L31.5403 26.7699L34.4961 19.46L37.4518 12.1498L40.2413 12.1508L43.031 12.1517L38.7395 22.0145L34.4479 31.8773L31.9567 31.8786L29.4654 31.8799L25.7687 25.8322L22.19 19.9859L22.0619 19.9869L21.9542 19.9889L18.396 25.8332L14.7203 31.8818L12.2114 31.8827L9.70245 31.8837L5.42584 22.0205L1.14929 12.1572Z" fill="white" stroke="white" stroke-width="0.298814" stroke-miterlimit="10" stroke-linejoin="round"/>
</g>
</svg>
