<svg width="16" height="15" viewBox="0 0 16 15" fill="none" xmlns="http://www.w3.org/2000/svg">
<path d="M4.46606 13.2833C4.86441 13.1718 5.22788 12.9608 5.5223 12.6703L14.5192 3.67333C14.8273 3.36401 15.0003 2.94521 15.0003 2.50863C15.0003 2.07204 14.8273 1.65325 14.5192 1.34393L13.6327 0.46687C13.319 0.167212 12.9019 0 12.468 0C12.0342 0 11.6171 0.167212 11.3034 0.46687L2.30641 9.45438C2.01532 9.74686 1.80705 10.1113 1.70285 10.5106L1.00497 13.1135C0.971859 13.2324 0.971007 13.358 1.0025 13.4773C1.03399 13.5966 1.09669 13.7054 1.18415 13.7925C1.31764 13.9238 1.4968 13.9981 1.68398 14L4.46606 13.2833ZM4.85272 12.0007C4.67886 12.1777 4.46063 12.3047 4.22086 12.3685L3.30607 12.6137L2.363 11.6706L2.6082 10.7558C2.67416 10.517 2.80088 10.2993 2.976 10.124L3.33437 9.77502L5.21108 11.6517L4.85272 12.0007ZM5.88067 10.9822L4.00395 9.10544L10.3508 2.75854L12.2276 4.63526L5.88067 10.9822ZM13.8497 3.01317L12.8971 3.96568L11.0204 2.08896L11.9729 1.12702C12.0385 1.06121 12.1164 1.00899 12.2021 0.97336C12.2879 0.937728 12.3799 0.919385 12.4728 0.919385C12.5656 0.919385 12.6576 0.937728 12.7434 0.97336C12.8292 1.00899 12.9071 1.06121 12.9726 1.12702L13.8497 2.01351C13.9812 2.14662 14.055 2.32621 14.055 2.51334C14.055 2.70048 13.9812 2.88007 13.8497 3.01317Z" fill="url(#paint0_linear_98_114)"/>
<defs>
<linearGradient id="paint0_linear_98_114" x1="-23.0205" y1="17.5" x2="52.8435" y2="29.8754" gradientUnits="userSpaceOnUse">
<stop stop-color="#FFC586"/>
<stop offset="0.2353" stop-color="#FF7872"/>
<stop offset="0.391266" stop-color="#F57F9F"/>
</linearGradient>
<linearGradient id="paint1_linear_98_114" x1="-17.0205" y1="21" x2="-9.44055" y2="1.71985" gradientUnits="userSpaceOnUse">
<stop stop-color="#FFC586"/>
<stop offset="0.337949" stop-color="#FF7872"/>
<stop offset="0.811282" stop-color="#F57F9F"/>
</linearGradient>
</defs>
</svg>
