<svg width="2316" height="2316" viewBox="0 0 2316 2316" fill="none" xmlns="http://www.w3.org/2000/svg">
<g clip-path="url(#clip0_797_93202)">
<circle cx="1158" cy="1158" r="1158" fill="#0E1235"/>
<path d="M1154.66 861.043H860.046V1154.05H1154.66V861.043Z" fill="#F2CF63"/>
<path d="M859.321 829.499H1153.93V552.5H859.321V829.499Z" fill="#6D94CE"/>
<path d="M531.01 829.499H825.622V552.5H531.01V829.499Z" fill="#FE1D5B"/>
<path d="M1219.59 829.011C1219.59 667.294 1351.68 536 1514.2 536V829.011H1219.59Z" fill="#1A84DD"/>
<path d="M1547.94 1154.89L1842.55 1154.89L1842.55 861.879L1547.94 861.879L1547.94 1154.89Z" fill="#6D94CE"/>
<path d="M1219.59 1154.85L1514.2 861.043H1219.59V1154.85Z" fill="#FE1D5B"/>
<path d="M1843.22 829.011C1843.22 667.294 1711.12 536 1548.6 536V829.011H1843.22Z" fill="#F2CF63"/>
<path d="M1225.15 1480.76C1225.15 1319.04 1357.24 1187.75 1519.76 1187.75V1480.76H1225.15Z" fill="#1A84DD"/>
<path d="M1225.15 1512.79L1519.76 1806.61V1512.79H1225.15Z" fill="#6D94CE"/>
<path d="M1848.01 1806.61C1848.01 1644.9 1715.91 1513.6 1553.39 1513.6V1806.61H1848.01Z" fill="#FE1D5B"/>
<path d="M1154.66 1512.79C1154.66 1674.51 1022.56 1805.8 860.046 1805.8V1512.79H1154.66Z" fill="#F2CF63"/>
<path d="M531.032 1512.79C531.032 1674.51 663.127 1805.8 825.644 1805.8V1512.79H531.032Z" fill="#1A84DD"/>
<path d="M678.338 1480.76C759.693 1480.76 825.644 1415.17 825.644 1334.26C825.644 1253.34 759.693 1187.75 678.338 1187.75C596.983 1187.75 531.032 1253.34 531.032 1334.26C531.032 1415.17 596.983 1480.76 678.338 1480.76Z" fill="#6D94CE"/>
<path d="M1700.7 1480.76C1782.05 1480.76 1848.01 1415.17 1848.01 1334.26C1848.01 1253.34 1782.05 1187.75 1700.7 1187.75C1619.34 1187.75 1553.39 1253.34 1553.39 1334.26C1553.39 1415.17 1619.34 1480.76 1700.7 1480.76Z" fill="#F2CF63"/>
<path d="M825.642 861.043H749.587V1154.05H825.642V861.043Z" fill="#1A84DD"/>
<path d="M715.949 861.043H639.895V1154.05H715.949V861.043Z" fill="#1A84DD"/>
<path d="M607.119 861.043H531.064V1154.05H607.119V861.043Z" fill="#1A84DD"/>
<path d="M1157.85 1187.75H1081.79V1480.76H1157.85V1187.75Z" fill="#FE1D5B"/>
<path d="M1048.19 1187.75H972.134V1480.76H1048.19V1187.75Z" fill="#FE1D5B"/>
<path d="M939.294 1187.75H863.24V1480.76H939.294V1187.75Z" fill="#FE1D5B"/>
</g>
<defs>
<clipPath id="clip0_797_93202">
<rect width="2316" height="2316" fill="white"/>
</clipPath>
</defs>
</svg>
