<svg width="22" height="22" viewBox="0 0 22 22" fill="none" xmlns="http://www.w3.org/2000/svg">
<g clip-path="url(#clip0_1286_592)">
<path d="M16.8438 0H5.15625C2.30853 0 0 2.30853 0 5.15625V16.8438C0 19.6915 2.30853 22 5.15625 22H16.8438C19.6915 22 22 19.6915 22 16.8438V5.15625C22 2.30853 19.6915 0 16.8438 0Z" fill="#FCAB90"/>
</g>
<path d="M18.9167 14.3767V7.62336C18.9161 7.16647 18.8247 6.71425 18.6479 6.29296C18.4711 5.87166 18.2123 5.48968 17.8867 5.1692C17.2233 4.51669 16.3297 4.15148 15.3992 4.15253H6.60001C5.66948 4.15148 4.77592 4.51669 4.11251 5.1692C3.78702 5.48975 3.52844 5.87176 3.35177 6.29305C3.1751 6.71434 3.08386 7.16653 3.08334 7.62336V14.3767C3.08334 15.2975 3.45418 16.18 4.11334 16.8309C4.77676 17.4834 5.67032 17.8486 6.60084 17.8475H15.4C16.3333 17.8475 17.2275 17.4809 17.8875 16.8309C18.2131 16.5104 18.4719 16.1284 18.6487 15.7071C18.8255 15.2858 18.9161 14.8336 18.9167 14.3767Z" stroke="white" stroke-linecap="round" stroke-linejoin="round"/>
<path d="M10.6942 14.3067C10.6942 13.63 10.4242 12.9817 9.94251 12.5025C9.46001 12.0227 8.80718 11.7533 8.12667 11.7533C7.44617 11.7533 6.79334 12.0227 6.31084 12.5025C6.07269 12.7388 5.88366 13.0198 5.75465 13.3295C5.62565 13.6391 5.55921 13.9712 5.55917 14.3067M13.14 8.43253H16.135M13.14 11H14.4233M13.14 13.5675H16.135M8.12667 11.1167C8.58064 11.1167 9.016 10.9364 9.337 10.6154C9.658 10.2944 9.83834 9.85899 9.83834 9.40503C9.83834 8.95106 9.658 8.5157 9.337 8.1947C9.016 7.8737 8.58064 7.69336 8.12667 7.69336C7.67271 7.69336 7.23734 7.8737 6.91634 8.1947C6.59534 8.5157 6.41501 8.95106 6.41501 9.40503C6.41501 9.85899 6.59534 10.2944 6.91634 10.6154C7.23734 10.9364 7.67271 11.1167 8.12667 11.1167Z" stroke="white" stroke-linecap="round" stroke-linejoin="round"/>
<defs>
<clipPath id="clip0_1286_592">
<rect width="22" height="22" fill="white"/>
</clipPath>
</defs>
</svg>
