<svg width="225" height="38" viewBox="0 0 225 38" fill="none" xmlns="http://www.w3.org/2000/svg">
<path d="M33.5813 7.64241C33.6544 7.52289 33.7846 7.44982 33.9248 7.44982H44.033C44.1732 7.44982 44.303 7.52249 44.3765 7.64201L56.2004 26.946C56.2945 27.0996 56.524 27.0798 56.5903 26.9122L67.1421 0.254518C67.2028 0.100852 67.3513 0 67.5165 0H77.564C77.8526 0 78.0476 0.295024 77.9344 0.560664L62.1525 37.6426C62.0889 37.7915 61.9432 37.8876 61.7816 37.8876H52.703C52.5613 37.8876 52.4302 37.8134 52.3572 37.6919L39.0744 15.4933C39.0347 15.4274 38.9636 15.3869 38.8866 15.3869C38.8846 15.3869 38.8826 15.388 38.8818 15.3896L25.6105 37.6911C25.5379 37.813 25.4064 37.8876 25.2643 37.8876H16.1233C15.9617 37.8876 15.8156 37.7911 15.7525 37.6422L0.0323638 0.559864C-0.0802055 0.294224 0.114719 0 0.40319 0H10.3885C10.5536 0 10.7018 0.100456 10.7629 0.253725L21.3774 26.9134C21.4441 27.081 21.6732 27.1004 21.7673 26.9467L33.5813 7.64241Z" fill="white"/>
<path d="M129.994 0C145.896 0 154.865 7.00589 154.865 18.9386V18.9926C154.865 30.8714 145.896 37.8769 129.994 37.8769H92.6651C92.4427 37.8769 92.2625 37.6966 92.2625 37.4743V0.402626C92.2625 0.180267 92.4427 0 92.6651 0H129.994ZM102.525 29.6024C102.525 29.8247 102.705 30.005 102.928 30.005H129.199C138.825 30.005 143.469 25.9549 143.469 19.0034V18.9494C143.469 11.9435 138.814 7.83974 129.199 7.83974H102.928C102.705 7.83974 102.525 8.02002 102.525 8.24237V29.6024Z" fill="white"/>
<path d="M198.723 18.7798C201.338 20.4769 203.055 23.2147 203.055 27.704C203.055 34.3839 199.581 37.8876 190.957 37.8876H167.538C164.496 37.8876 145.958 37.8876 145.958 37.8876C145.958 37.8876 152.368 36.2632 156.224 28.8432L191.243 28.8539C193.818 28.8539 194.881 28.0875 194.881 25.8425C194.881 23.7619 193.818 22.7763 191.243 22.7763L158.197 22.7819C158.197 22.7819 158.521 21.2599 158.521 18.9438C158.521 16.6281 158.233 15.0942 158.233 15.0942L191.121 15.1113C193.082 15.1113 194.186 14.3449 194.186 12.0999C194.186 9.91007 193.082 9.03413 191.121 9.03413L156.314 9.06709C152.861 1.75028 145.958 0 145.958 0C145.958 0 164.592 0 167.538 0H190.712C198.845 0 202.36 3.94211 202.36 10.4028C202.36 14.5089 200.93 17.1371 198.723 18.7798Z" fill="white"/>
<path d="M80.5264 0.39707C80.5264 0.177887 80.7043 0 80.9234 0H88.5579C88.7771 0 88.955 0.177887 88.955 0.39707V37.4798C88.955 37.699 88.7771 37.8769 88.5579 37.8769H80.9234C80.7043 37.8769 80.5264 37.699 80.5264 37.4798V0.39707Z" fill="white"/>
<path d="M211.758 9.47111C211.758 9.25153 211.936 9.07404 212.155 9.07404H218.115C218.334 9.07404 218.512 9.25153 218.512 9.47111V28.4062C218.512 28.6258 218.334 28.8033 218.115 28.8033H212.155C211.936 28.8033 211.758 28.6258 211.758 28.4062V9.47111Z" fill="white"/>
<path d="M224.603 15.5668C224.822 15.5668 225 15.7447 225 15.9639V21.9239C225 22.1435 224.822 22.321 224.603 22.321H205.668C205.448 22.321 205.271 22.1435 205.271 21.9239V15.9639C205.271 15.7447 205.448 15.5668 205.668 15.5668H224.603Z" fill="white"/>
</svg>
