<svg width="459" height="92" viewBox="0 0 459 92" fill="none" xmlns="http://www.w3.org/2000/svg">
<path d="M0.727539 1.02314L13.3058 1.00571L25.884 0.988281L39.3874 34.2073L52.8914 67.4253L68.0672 43.1451L83.244 18.864L95.813 18.8591L108.383 18.8533L123.515 43.0503L138.648 67.2481L138.689 67.313L138.73 67.3779L152.151 34.1841L165.573 0.989256L178.24 0.994101L190.908 0.997971L171.42 45.784L151.933 90.57L140.62 90.5758L129.308 90.5816L112.521 63.1195L96.2709 36.5722L95.6891 36.577L95.2002 36.5857L79.0428 63.1243L62.352 90.5903L50.9592 90.5942L39.5664 90.599L20.1468 45.8111L0.727539 1.02314Z" fill="white" stroke="white" stroke-width="1.35688" stroke-miterlimit="10" stroke-linejoin="round"/>
<path d="M198.384 0.988281L198.364 90.599H217.696L217.695 0.988281H198.384Z" fill="white" stroke="white" stroke-width="1.35688" stroke-miterlimit="10" stroke-linejoin="round"/>
<path d="M227.295 0.999512V4.26662V7.53373L227.204 49.0691L227.144 90.6035H303.527H323.372C323.372 90.6035 349.695 90.405 364.18 78.4421C378.185 66.876 379.582 55.8143 379.185 42.6549C378.951 34.9387 377.058 23.0019 363.03 12.2529C348.399 1.04114 321.163 0.999512 321.163 0.999512H303.587H227.295ZM279.084 19.8161H327.516C340.742 19.8161 351.475 30.5013 351.475 43.6839V47.7071C351.475 60.8907 340.742 71.5758 327.516 71.5758H279.084C265.857 71.5758 255.156 60.8907 255.156 47.7071V43.6839C255.156 30.5013 265.857 19.8161 279.084 19.8161Z" fill="white" stroke="white" stroke-width="1.35688" stroke-miterlimit="10" stroke-linejoin="round"/>
<path d="M356.775 0.988281C356.775 0.988281 369.479 5.76359 376.539 14.713C383.661 23.7409 387.468 32.8085 387.675 45.8043C387.932 61.9259 383.776 69.4127 377.063 77.7968C368.582 88.388 356.64 90.599 356.64 90.599L457.983 90.6136L457.973 73.9053L402.259 73.8695C402.259 73.8695 404.764 68.5172 405.799 63.8291C406.958 58.5775 407.337 54.3588 407.337 54.3588L452.66 54.3578L452.683 38.3863L407.354 38.3621C407.354 38.3621 406.676 33.8743 405.542 28.8541C404.406 23.8338 401.719 18.3955 401.719 18.3955L457.994 18.4235L458 0.998946L356.775 0.988281Z" fill="white" stroke="white" stroke-width="1.35688" stroke-miterlimit="10" stroke-linejoin="round"/>
</svg>
